# WaveFront *.obj file (generated by Autodesk ATF)

mtllib Samplebag_holder.mtl

g Body1

v -1.000000 3.500000 1.000000
v 1.000000 3.500000 1.000000
v 1.000000 3.500000 6.000000
v -1.000000 3.500000 6.000000
v 1.000000 -3.500000 1.000000
v 1.000000 -3.500000 6.000000
v -1.000000 -3.500000 1.000000
v -1.000000 -3.500000 6.000000
v -2.000000 4.500000 0.000000
v -2.000000 -4.500000 0.000000
v -2.000000 -4.500000 6.000000
v -2.000000 4.500000 6.000000
v 2.000000 4.500000 0.000000
v 2.000000 4.500000 6.000000
v 2.000000 -4.500000 0.000000
v 2.000000 -4.500000 6.000000
vt 0.000000 1.000000 0.000000
vt 2.000000 1.000000 0.000000
vt 0.000000 6.000000 0.000000
vt 2.000000 6.000000 0.000000
vt -0.000000 1.000000 0.000000
vt 7.000000 1.000000 0.000000
vt -0.000000 6.000000 0.000000
vt 7.000000 6.000000 0.000000
vt 0.000000 1.000000 0.000000
vt 7.000000 1.000000 0.000000
vt 0.000000 6.000000 0.000000
vt 7.000000 6.000000 0.000000
vt -0.000000 1.000000 0.000000
vt 2.000000 1.000000 0.000000
vt -0.000000 6.000000 0.000000
vt 2.000000 6.000000 0.000000
vt 0.000000 0.000000 0.000000
vt 9.000000 0.000000 0.000000
vt 0.000000 6.000000 0.000000
vt 9.000000 6.000000 0.000000
vt 0.000000 0.000000 0.000000
vt 4.000000 0.000000 0.000000
vt 0.000000 6.000000 0.000000
vt 4.000000 6.000000 0.000000
vt 0.000000 0.000000 0.000000
vt 9.000000 0.000000 0.000000
vt 0.000000 6.000000 0.000000
vt 9.000000 6.000000 0.000000
vt 0.000000 0.000000 0.000000
vt 4.000000 0.000000 0.000000
vt 0.000000 6.000000 0.000000
vt 4.000000 6.000000 0.000000
vt 1.000000 -3.500000 0.000000
vt 2.000000 -4.500000 0.000000
vt 1.000000 3.500000 0.000000
vt 2.000000 4.500000 0.000000
vt -2.000000 4.500000 0.000000
vt -1.000000 -3.500000 0.000000
vt -2.000000 -4.500000 0.000000
vt -1.000000 3.500000 0.000000
vt 1.000000 3.500000 0.000000
vt -1.000000 3.500000 0.000000
vt 1.000000 -3.500000 0.000000
vt -1.000000 -3.500000 0.000000
vt -2.000000 -4.500000 0.000000
vt 2.000000 -4.500000 0.000000
vt -2.000000 4.500000 0.000000
vt 2.000000 4.500000 0.000000
vn 0.000000 -1.000000 0.000000
vn 0.000000 -1.000000 0.000000
vn 0.000000 -1.000000 0.000000
vn 0.000000 -1.000000 0.000000
vn -1.000000 0.000000 0.000000
vn -1.000000 0.000000 0.000000
vn -1.000000 0.000000 0.000000
vn -1.000000 0.000000 0.000000
vn 1.000000 0.000000 -0.000000
vn 1.000000 0.000000 -0.000000
vn 1.000000 0.000000 -0.000000
vn 1.000000 0.000000 -0.000000
vn 0.000000 1.000000 0.000000
vn 0.000000 1.000000 0.000000
vn 0.000000 1.000000 0.000000
vn 0.000000 1.000000 0.000000
vn -1.000000 0.000000 0.000000
vn -1.000000 0.000000 0.000000
vn -1.000000 0.000000 0.000000
vn -1.000000 0.000000 0.000000
vn 0.000000 1.000000 -0.000000
vn 0.000000 1.000000 -0.000000
vn 0.000000 1.000000 -0.000000
vn 0.000000 1.000000 -0.000000
vn 1.000000 0.000000 0.000000
vn 1.000000 0.000000 0.000000
vn 1.000000 0.000000 0.000000
vn 1.000000 0.000000 0.000000
vn 0.000000 -1.000000 0.000000
vn 0.000000 -1.000000 0.000000
vn 0.000000 -1.000000 0.000000
vn 0.000000 -1.000000 0.000000
vn 0.000000 0.000000 1.000000
vn 0.000000 0.000000 1.000000
vn 0.000000 0.000000 1.000000
vn 0.000000 0.000000 1.000000
vn 0.000000 0.000000 1.000000
vn 0.000000 0.000000 1.000000
vn 0.000000 0.000000 1.000000
vn 0.000000 0.000000 1.000000
vn 0.000000 0.000000 1.000000
vn 0.000000 0.000000 1.000000
vn 0.000000 0.000000 1.000000
vn 0.000000 0.000000 1.000000
vn -0.000000 -0.000000 -1.000000
vn -0.000000 -0.000000 -1.000000
vn -0.000000 -0.000000 -1.000000
vn -0.000000 -0.000000 -1.000000
usemtl Steel_-_Satin
f 1/1/1 2/2/2 4/3/3
f 4/3/3 2/2/2 3/4/4
f 2/5/5 5/6/6 3/7/7
f 3/7/7 5/6/6 6/8/8
f 7/9/9 1/10/10 8/11/11
f 8/11/11 1/10/10 4/12/12
f 5/13/13 7/14/14 6/15/15
f 6/15/15 7/14/14 8/16/16
f 9/17/17 10/18/18 12/19/19
f 12/19/19 10/18/18 11/20/20
f 13/21/21 9/22/22 14/23/23
f 14/23/23 9/22/22 12/24/24
f 15/25/25 13/26/26 16/27/27
f 16/27/27 13/26/26 14/28/28
f 10/29/29 15/30/30 11/31/31
f 11/31/31 15/30/30 16/32/32
f 6/33/33 16/34/34 3/35/35
f 3/35/35 16/34/34 14/36/36
f 3/35/35 14/36/36 12/37/37
f 6/33/33 8/38/38 16/34/34
f 16/34/34 8/38/38 11/39/39
f 11/39/39 8/38/38 4/40/40
f 11/39/39 4/40/40 12/37/37
f 12/37/37 4/40/40 3/35/35
f 2/41/41 1/42/42 5/43/43
f 5/43/43 1/42/42 7/44/44
f 15/45/45 10/46/46 13/47/47
f 13/47/47 10/46/46 9/48/48
# 16 vertices
# 48 texture params
# 48 normals
# 28 facets

# 1 groups
