# WaveFront *.obj file (generated by Autodesk ATF)

mtllib Samplebag_v2.mtl

g Body9

v 0.000000 2.500000 7.000000
v -0.098017 2.487962 7.000000
v -0.195090 2.451963 7.000000
v -0.290285 2.392351 7.000000
v -0.382683 2.309699 7.000000
v -0.471397 2.204803 7.000000
v -0.555570 2.078674 7.000000
v -0.707107 1.767767 7.000000
v -0.831470 1.388926 7.000000
v -0.923880 0.956709 7.000000
v -0.980785 0.487726 7.000000
v -1.000000 -0.000000 7.000000
v -0.750000 -0.000000 5.500000
v -0.500000 -0.000000 4.000000
v -0.375000 -0.000000 3.250000
v -0.250000 -0.000000 2.500000
v -0.125000 0.000000 1.750000
v 0.000000 0.000000 1.000000
v 0.000000 0.500000 1.000000
v 0.000000 1.000000 1.000000
v 0.000000 1.500000 1.000000
v 0.000000 2.000000 1.000000
v 0.000000 2.500000 1.000000
v 0.000000 2.500000 1.375000
v 0.000000 2.500000 1.750000
v 0.000000 2.500000 2.500000
v 0.000000 2.500000 2.875000
v 0.000000 2.500000 3.250000
v 0.000000 2.500000 3.625000
v 0.000000 2.500000 4.000000
v 0.000000 2.500000 4.375000
v 0.000000 2.500000 4.750000
v 0.000000 2.500000 5.125000
v 0.000000 2.500000 5.500000
v 0.000000 2.500000 5.875000
v 0.000000 2.500000 6.250000
v -0.834544 0.360859 6.062500
v -0.618181 0.350368 4.750000
v -0.865453 0.362357 6.250000
v -0.836232 0.724096 6.250000
v -0.785738 1.082718 6.250000
v -0.711138 1.434952 6.250000
v -0.615634 1.751111 6.250000
v -0.487631 2.049823 6.250000
v -0.389687 2.213103 6.250000
v -0.266983 2.359274 6.250000
v -0.194758 2.420053 6.250000
v -0.107684 2.469433 6.250000
v -0.053057 2.488873 6.250000
v -0.679999 0.353365 5.125000
v -0.657039 0.706245 5.125000
v -0.617366 1.056674 5.125000
v -0.558752 1.402086 5.125000
v -0.483713 1.712882 5.125000
v -0.383139 2.009970 5.125000
v -0.306183 2.175180 5.125000
v -0.209773 2.326947 5.125000
v -0.153025 2.394227 5.125000
v -0.084609 2.452551 5.125000
v -0.041688 2.479541 5.125000
v -0.045477 2.482652 5.500000
v -0.092300 2.458178 5.500000
v -0.166936 2.402835 5.500000
v -0.228843 2.337723 5.500000
v -0.334018 2.187821 5.500000
v -0.417969 2.023254 5.500000
v -0.527687 1.725625 5.500000
v -0.609547 1.413041 5.500000
v -0.673490 1.065356 5.500000
v -0.716770 0.712195 5.500000
v -0.741817 0.356362 5.500000
v -0.370908 0.338378 3.250000
v -0.358385 0.676492 3.250000
v -0.336745 1.013269 3.250000
v -0.304774 1.347309 3.250000
v -0.263843 1.649167 3.250000
v -0.208985 1.943548 3.250000
v -0.167009 2.111974 3.250000
v -0.114421 2.273068 3.250000
v -0.083468 2.351183 3.250000
v -0.046150 2.424414 3.250000
v -0.022739 2.463988 3.250000
v -0.030318 2.470209 4.000000
v -0.061533 2.435669 4.000000
v -0.111291 2.368401 4.000000
v -0.152562 2.294619 4.000000
v -0.222679 2.137256 4.000000
v -0.278646 1.970117 4.000000
v -0.351791 1.674653 4.000000
v -0.406365 1.369220 4.000000
v -0.448993 1.030631 4.000000
v -0.477847 0.688393 4.000000
v -0.494545 0.344373 4.000000
v -0.247272 0.332384 2.500000
v -0.238923 0.664591 2.500000
v -0.224497 0.995907 2.500000
v -0.203182 1.325398 2.500000
v -0.175896 1.623681 2.500000
v -0.139323 1.916979 2.500000
v -0.111339 2.086692 2.500000
v -0.076281 2.251516 2.500000
v -0.055645 2.333966 2.500000
v -0.030767 2.413159 2.500000
v -0.015159 2.457767 2.500000
v -0.123636 0.326389 1.750000
v -0.119462 0.652689 1.750000
v -0.112248 0.978544 1.750000
v -0.101591 1.303487 1.750000
v -0.087948 1.598195 1.750000
v -0.069662 1.890411 1.750000
v -0.055670 2.061409 1.750000
v -0.038140 2.229964 1.750000
v -0.027823 2.316749 1.750000
v -0.015383 2.401905 1.750000
v -0.007580 2.451546 1.750000
v -0.037898 2.476431 4.750000
v -0.076917 2.446923 4.750000
v -0.139113 2.385618 4.750000
v -0.190702 2.316171 4.750000
v -0.278348 2.162539 4.750000
v -0.348308 1.996686 4.750000
v -0.439739 1.700139 4.750000
v -0.507956 1.391130 4.750000
v -0.561242 1.047993 4.750000
v -0.597308 0.700294 4.750000
v -0.049267 2.485762 5.875000
v -0.099992 2.463805 5.875000
v -0.180847 2.411444 5.875000
v -0.247913 2.348499 5.875000
v -0.361853 2.200462 5.875000
v -0.452800 2.036539 5.875000
v -0.571660 1.738368 5.875000
v -0.660343 1.423997 5.875000
v -0.729614 1.074037 5.875000
v -0.776501 0.718146 5.875000
v -0.803635 0.359360 5.875000
v -0.051162 2.487318 6.062500
v -0.103838 2.466619 6.062500
v -0.187803 2.415748 6.062500
v -0.257448 2.353887 6.062500
v -0.375770 2.206783 6.062500
v -0.470216 2.043181 6.062500
v -0.593647 1.744739 6.062500
v -0.685741 1.429474 6.062500
v -0.757676 1.078377 6.062500
v -0.806366 0.721121 6.062500
v -0.980785 -0.487726 7.000000
v -0.923880 -0.956709 7.000000
v -0.831470 -1.388926 7.000000
v -0.707107 -1.767767 7.000000
v -0.555570 -2.078674 7.000000
v -0.471397 -2.204803 7.000000
v -0.382683 -2.309699 7.000000
v -0.290285 -2.392351 7.000000
v -0.195090 -2.451963 7.000000
v -0.098017 -2.487962 7.000000
v 0.000000 -2.500000 7.000000
v 0.000000 -2.500000 6.250000
v 0.000000 -2.500000 5.875000
v 0.000000 -2.500000 5.500000
v 0.000000 -2.500000 5.125000
v 0.000000 -2.500000 4.750000
v 0.000000 -2.500000 4.375000
v 0.000000 -2.500000 4.000000
v 0.000000 -2.500000 3.625000
v 0.000000 -2.500000 3.250000
v 0.000000 -2.500000 2.875000
v 0.000000 -2.500000 2.500000
v 0.000000 -2.500000 1.750000
v 0.000000 -2.500000 1.375000
v 0.000000 -2.500000 1.000000
v 0.000000 -2.000000 1.000000
v 0.000000 -1.500000 1.000000
v 0.000000 -1.000000 1.000000
v 0.000000 -0.500000 1.000000
v -0.859670 -0.459570 6.250000
v -0.085524 -2.485124 6.625000
v -0.171549 -2.450209 6.625000
v -0.248313 -2.401417 6.625000
v -0.313697 -2.345066 6.625000
v -0.415903 -2.228184 6.625000
v -0.502826 -2.097952 6.625000
v -0.637023 -1.821326 6.625000
v -0.779001 -1.380330 6.625000
v -0.869898 -0.924760 6.625000
v -0.921075 -0.463336 6.625000
v -0.074121 -2.476244 5.875000
v -0.148676 -2.435120 5.875000
v -0.215205 -2.381970 5.875000
v -0.271871 -2.322268 5.875000
v -0.360449 -2.202746 5.875000
v -0.435782 -2.071654 5.875000
v -0.552087 -1.795464 5.875000
v -0.675134 -1.359022 5.875000
v -0.753912 -0.909950 5.875000
v -0.798265 -0.455803 5.875000
v -0.767563 -0.453920 5.687500
v -0.811905 -0.917355 6.250000
v -0.727068 -1.369676 6.250000
v -0.594555 -1.808395 6.250000
v -0.469304 -2.084803 6.250000
v -0.388176 -2.215465 6.250000
v -0.292784 -2.333667 6.250000
v -0.231759 -2.391693 6.250000
v -0.160112 -2.442664 6.250000
v -0.079823 -2.480684 6.250000
v -0.071270 -2.474023 5.687500
v -0.142958 -2.431348 5.687500
v -0.206928 -2.377108 5.687500
v -0.261414 -2.316568 5.687500
v -0.346586 -2.196387 5.687500
v -0.419021 -2.065080 5.687500
v -0.530852 -1.788998 5.687500
v -0.649168 -1.353695 5.687500
v -0.724915 -0.906247 5.687500
v -0.057016 -2.462923 4.750000
v -0.114366 -2.412486 4.750000
v -0.165542 -2.352798 4.750000
v -0.209131 -2.288071 4.750000
v -0.277269 -2.164590 4.750000
v -0.335217 -2.032208 4.750000
v -0.424682 -1.756671 4.750000
v -0.519334 -1.327060 4.750000
v -0.579932 -0.887734 4.750000
v -0.614050 -0.444504 4.750000
v -0.736860 -0.452037 5.500000
v -0.695919 -0.902544 5.500000
v -0.623201 -1.348368 5.500000
v -0.509618 -1.782533 5.500000
v -0.402260 -2.058505 5.500000
v -0.332722 -2.190027 5.500000
v -0.250958 -2.310869 5.500000
v -0.198651 -2.372246 5.500000
v -0.137239 -2.427575 5.500000
v -0.068419 -2.471803 5.500000
v -0.045613 -2.454042 4.000000
v -0.091493 -2.397397 4.000000
v -0.132434 -2.333351 4.000000
v -0.167305 -2.265273 4.000000
v -0.221815 -2.139152 4.000000
v -0.268174 -2.005911 4.000000
v -0.339746 -1.730809 4.000000
v -0.415467 -1.305752 4.000000
v -0.463946 -0.872923 4.000000
v -0.491240 -0.436971 4.000000
v -0.034210 -2.445162 3.250000
v -0.068620 -2.382308 3.250000
v -0.099325 -2.313904 3.250000
v -0.125479 -2.242475 3.250000
v -0.166361 -2.113714 3.250000
v -0.201130 -1.979613 3.250000
v -0.254809 -1.704947 3.250000
v -0.311600 -1.284444 3.250000
v -0.347959 -0.858112 3.250000
v -0.368430 -0.429439 3.250000
v -0.022806 -2.436281 2.500000
v -0.045746 -2.367219 2.500000
v -0.066217 -2.294456 2.500000
v -0.083653 -2.219677 2.500000
v -0.110907 -2.088277 2.500000
v -0.134087 -1.953316 2.500000
v -0.169873 -1.679085 2.500000
v -0.207734 -1.263136 2.500000
v -0.231973 -0.843302 2.500000
v -0.245620 -0.421906 2.500000
v -0.011403 -2.427401 1.750000
v -0.022873 -2.352130 1.750000
v -0.033108 -2.275009 1.750000
v -0.041826 -2.196879 1.750000
v -0.055454 -2.062839 1.750000
v -0.067043 -1.927019 1.750000
v -0.084936 -1.653223 1.750000
v -0.103867 -1.241829 1.750000
v -0.115986 -0.828491 1.750000
v -0.122810 -0.414373 1.750000
v -0.005702 -2.422961 1.375000
v -0.011437 -2.344585 1.375000
v -0.016554 -2.265285 1.375000
v -0.020913 -2.185480 1.375000
v -0.027727 -2.050120 1.375000
v -0.033522 -1.913870 1.375000
v -0.042468 -1.640292 1.375000
v -0.051933 -1.231175 1.375000
v -0.057993 -0.821086 1.375000
v -0.061405 -0.410607 1.375000
v 0.098017 -2.487962 7.000000
v 0.195090 -2.451963 7.000000
v 0.290285 -2.392351 7.000000
v 0.382683 -2.309699 7.000000
v 0.471397 -2.204803 7.000000
v 0.555570 -2.078674 7.000000
v 0.707107 -1.767767 7.000000
v 0.831470 -1.388926 7.000000
v 0.923880 -0.956709 7.000000
v 0.980785 -0.487726 7.000000
v 1.000000 -0.000000 7.000000
v 0.750000 -0.000000 5.500000
v 0.500000 -0.000000 4.000000
v 0.375000 -0.000000 3.250000
v 0.250000 -0.000000 2.500000
v 0.125000 -0.000000 1.750000
v 0.834544 -0.360859 6.062500
v 0.618181 -0.350368 4.750000
v 0.865453 -0.362357 6.250000
v 0.836232 -0.724096 6.250000
v 0.785738 -1.082718 6.250000
v 0.711138 -1.434952 6.250000
v 0.615634 -1.751111 6.250000
v 0.487631 -2.049823 6.250000
v 0.389687 -2.213103 6.250000
v 0.266983 -2.359274 6.250000
v 0.194758 -2.420053 6.250000
v 0.107684 -2.469433 6.250000
v 0.053057 -2.488873 6.250000
v 0.679999 -0.353365 5.125000
v 0.657039 -0.706245 5.125000
v 0.617366 -1.056674 5.125000
v 0.558752 -1.402086 5.125000
v 0.483713 -1.712882 5.125000
v 0.383139 -2.009970 5.125000
v 0.306183 -2.175180 5.125000
v 0.209773 -2.326947 5.125000
v 0.153025 -2.394227 5.125000
v 0.084609 -2.452551 5.125000
v 0.041688 -2.479541 5.125000
v 0.045477 -2.482652 5.500000
v 0.092300 -2.458178 5.500000
v 0.166936 -2.402835 5.500000
v 0.228843 -2.337723 5.500000
v 0.334018 -2.187821 5.500000
v 0.417969 -2.023254 5.500000
v 0.527687 -1.725625 5.500000
v 0.609547 -1.413041 5.500000
v 0.673490 -1.065356 5.500000
v 0.716770 -0.712195 5.500000
v 0.741817 -0.356362 5.500000
v 0.370908 -0.338378 3.250000
v 0.358385 -0.676492 3.250000
v 0.336745 -1.013269 3.250000
v 0.304774 -1.347309 3.250000
v 0.263843 -1.649167 3.250000
v 0.208985 -1.943548 3.250000
v 0.167009 -2.111974 3.250000
v 0.114421 -2.273068 3.250000
v 0.083468 -2.351183 3.250000
v 0.046150 -2.424414 3.250000
v 0.022739 -2.463988 3.250000
v 0.030318 -2.470209 4.000000
v 0.061533 -2.435669 4.000000
v 0.111291 -2.368401 4.000000
v 0.152562 -2.294619 4.000000
v 0.222679 -2.137256 4.000000
v 0.278646 -1.970117 4.000000
v 0.351791 -1.674653 4.000000
v 0.406365 -1.369220 4.000000
v 0.448993 -1.030631 4.000000
v 0.477847 -0.688393 4.000000
v 0.494545 -0.344373 4.000000
v 0.247272 -0.332384 2.500000
v 0.238923 -0.664591 2.500000
v 0.224497 -0.995907 2.500000
v 0.203182 -1.325398 2.500000
v 0.175896 -1.623681 2.500000
v 0.139323 -1.916979 2.500000
v 0.111339 -2.086692 2.500000
v 0.076281 -2.251516 2.500000
v 0.055645 -2.333966 2.500000
v 0.030767 -2.413159 2.500000
v 0.015159 -2.457767 2.500000
v 0.123636 -0.326389 1.750000
v 0.119462 -0.652689 1.750000
v 0.112248 -0.978544 1.750000
v 0.101591 -1.303487 1.750000
v 0.087948 -1.598195 1.750000
v 0.069662 -1.890411 1.750000
v 0.055670 -2.061409 1.750000
v 0.038140 -2.229964 1.750000
v 0.027823 -2.316749 1.750000
v 0.015383 -2.401905 1.750000
v 0.007580 -2.451546 1.750000
v 0.037898 -2.476431 4.750000
v 0.076917 -2.446923 4.750000
v 0.139113 -2.385618 4.750000
v 0.190702 -2.316171 4.750000
v 0.278348 -2.162539 4.750000
v 0.348308 -1.996686 4.750000
v 0.439739 -1.700139 4.750000
v 0.507956 -1.391130 4.750000
v 0.561242 -1.047993 4.750000
v 0.597308 -0.700294 4.750000
v 0.049267 -2.485762 5.875000
v 0.099992 -2.463805 5.875000
v 0.180847 -2.411444 5.875000
v 0.247913 -2.348499 5.875000
v 0.361853 -2.200462 5.875000
v 0.452800 -2.036539 5.875000
v 0.571660 -1.738368 5.875000
v 0.660343 -1.423997 5.875000
v 0.729614 -1.074037 5.875000
v 0.776501 -0.718146 5.875000
v 0.803635 -0.359360 5.875000
v 0.051162 -2.487318 6.062500
v 0.103838 -2.466619 6.062500
v 0.187803 -2.415748 6.062500
v 0.257448 -2.353887 6.062500
v 0.375770 -2.206783 6.062500
v 0.470216 -2.043181 6.062500
v 0.593647 -1.744739 6.062500
v 0.685741 -1.429474 6.062500
v 0.757676 -1.078377 6.062500
v 0.806366 -0.721121 6.062500
v 0.980785 0.487726 7.000000
v 0.923880 0.956709 7.000000
v 0.831470 1.388926 7.000000
v 0.707107 1.767767 7.000000
v 0.555570 2.078674 7.000000
v 0.471397 2.204803 7.000000
v 0.382683 2.309699 7.000000
v 0.290285 2.392351 7.000000
v 0.195090 2.451963 7.000000
v 0.098017 2.487962 7.000000
v 0.859670 0.459570 6.250000
v 0.085524 2.485124 6.625000
v 0.171549 2.450209 6.625000
v 0.248313 2.401417 6.625000
v 0.313697 2.345066 6.625000
v 0.415903 2.228184 6.625000
v 0.502826 2.097952 6.625000
v 0.637023 1.821326 6.625000
v 0.779001 1.380330 6.625000
v 0.869898 0.924760 6.625000
v 0.921075 0.463336 6.625000
v 0.074121 2.476244 5.875000
v 0.148676 2.435120 5.875000
v 0.215205 2.381970 5.875000
v 0.271871 2.322268 5.875000
v 0.360449 2.202746 5.875000
v 0.435782 2.071654 5.875000
v 0.552087 1.795464 5.875000
v 0.675134 1.359022 5.875000
v 0.753912 0.909950 5.875000
v 0.798265 0.455803 5.875000
v 0.767563 0.453920 5.687500
v 0.811905 0.917355 6.250000
v 0.727068 1.369676 6.250000
v 0.594555 1.808395 6.250000
v 0.469304 2.084803 6.250000
v 0.388176 2.215465 6.250000
v 0.292784 2.333667 6.250000
v 0.231759 2.391693 6.250000
v 0.160112 2.442664 6.250000
v 0.079823 2.480684 6.250000
v 0.071270 2.474023 5.687500
v 0.142958 2.431348 5.687500
v 0.206928 2.377108 5.687500
v 0.261414 2.316568 5.687500
v 0.346586 2.196387 5.687500
v 0.419021 2.065080 5.687500
v 0.530852 1.788998 5.687500
v 0.649168 1.353695 5.687500
v 0.724915 0.906247 5.687500
v 0.057016 2.462923 4.750000
v 0.114366 2.412486 4.750000
v 0.165542 2.352798 4.750000
v 0.209131 2.288071 4.750000
v 0.277269 2.164590 4.750000
v 0.335217 2.032208 4.750000
v 0.424682 1.756671 4.750000
v 0.519334 1.327060 4.750000
v 0.579932 0.887734 4.750000
v 0.614050 0.444504 4.750000
v 0.736860 0.452037 5.500000
v 0.695919 0.902544 5.500000
v 0.623201 1.348368 5.500000
v 0.509618 1.782533 5.500000
v 0.402260 2.058505 5.500000
v 0.332722 2.190027 5.500000
v 0.250958 2.310869 5.500000
v 0.198651 2.372246 5.500000
v 0.137239 2.427575 5.500000
v 0.068419 2.471803 5.500000
v 0.045613 2.454042 4.000000
v 0.091493 2.397397 4.000000
v 0.132434 2.333351 4.000000
v 0.167305 2.265273 4.000000
v 0.221815 2.139152 4.000000
v 0.268174 2.005911 4.000000
v 0.339746 1.730809 4.000000
v 0.415467 1.305752 4.000000
v 0.463946 0.872923 4.000000
v 0.491240 0.436971 4.000000
v 0.034210 2.445162 3.250000
v 0.068620 2.382308 3.250000
v 0.099325 2.313904 3.250000
v 0.125479 2.242475 3.250000
v 0.166361 2.113714 3.250000
v 0.201130 1.979613 3.250000
v 0.254809 1.704947 3.250000
v 0.311600 1.284444 3.250000
v 0.347959 0.858112 3.250000
v 0.368430 0.429439 3.250000
v 0.022806 2.436281 2.500000
v 0.045746 2.367219 2.500000
v 0.066217 2.294456 2.500000
v 0.083653 2.219677 2.500000
v 0.110907 2.088277 2.500000
v 0.134087 1.953316 2.500000
v 0.169873 1.679085 2.500000
v 0.207734 1.263136 2.500000
v 0.231973 0.843302 2.500000
v 0.245620 0.421906 2.500000
v 0.011403 2.427401 1.750000
v 0.022873 2.352130 1.750000
v 0.033108 2.275009 1.750000
v 0.041826 2.196879 1.750000
v 0.055454 2.062839 1.750000
v 0.067043 1.927019 1.750000
v 0.084936 1.653223 1.750000
v 0.103867 1.241829 1.750000
v 0.115986 0.828491 1.750000
v 0.122810 0.414373 1.750000
v 0.005702 2.422961 1.375000
v 0.011437 2.344585 1.375000
v 0.016554 2.265285 1.375000
v 0.020913 2.185480 1.375000
v 0.027727 2.050120 1.375000
v 0.033522 1.913870 1.375000
v 0.042468 1.640292 1.375000
v 0.051933 1.231175 1.375000
v 0.057993 0.821086 1.375000
v 0.061405 0.410607 1.375000
v 0.000000 2.500000 7.000000
v 0.000000 2.500000 1.000000
v 0.000000 -2.500000 1.000000
v 0.000000 -2.500000 7.000000
v 0.000000 -3.500000 7.000000
v 0.000000 -3.500000 0.000000
v 0.000000 3.500000 0.000000
v 0.000000 3.500000 7.000000
vt 0.000000 0.000000 0.000000
vt 0.093966 0.000000 0.000000
vt 0.000000 0.757317 0.000000
vt 0.058818 0.757317 0.000000
vt 0.058818 0.946646 0.000000
vt 0.117637 0.757317 0.000000
vt 0.117637 0.946646 0.000000
vt 0.215661 0.757317 0.000000
vt 0.215661 0.946646 0.000000
vt 0.313684 0.757317 0.000000
vt 0.313684 0.946646 0.000000
vt 0.499026 0.757317 0.000000
vt 0.499026 0.946646 0.000000
vt 0.684368 0.757317 0.000000
vt 0.684368 0.946646 0.000000
vt 0.997563 0.757317 0.000000
vt 0.997563 0.946646 0.000000
vt 1.310758 0.757317 0.000000
vt 1.310758 0.946646 0.000000
vt 1.655433 0.757317 0.000000
vt 1.655433 0.946646 0.000000
vt 2.000107 0.757317 0.000000
vt 2.000107 0.946646 0.000000
vt 2.344781 0.757317 0.000000
vt 2.344781 0.946646 0.000000
vt 2.689455 1.514634 0.000000
vt 2.344781 1.135976 0.000000
vt 2.344781 1.514634 0.000000
vt 2.000107 1.514634 0.000000
vt 2.000107 1.893293 0.000000
vt 1.655433 1.893293 0.000000
vt 1.655433 2.271951 0.000000
vt 1.310758 2.271951 0.000000
vt 1.310758 3.029269 0.000000
vt 0.997563 3.029269 0.000000
vt 0.997563 3.786586 0.000000
vt 0.684368 3.786586 0.000000
vt 0.684368 4.543903 0.000000
vt 0.499026 4.543903 0.000000
vt 0.499026 5.301220 0.000000
vt 0.313684 5.301220 0.000000
vt 0.537891 6.058537 0.000000
vt 0.000000 6.058537 0.000000
vt 0.187377 0.000000 0.000000
vt 0.294292 0.000002 0.000000
vt 0.414245 0.000000 0.000000
vt 0.537717 0.000010 0.000000
vt 0.681663 0.000031 0.000000
vt 1.006402 0.000001 0.000000
vt 1.376801 0.000004 0.000000
vt 1.791775 0.000002 0.000000
vt 2.233223 0.000001 0.000000
vt 2.689455 0.000000 0.000000
vt 2.689455 3.029269 0.000000
vt 2.344781 2.271951 0.000000
vt 2.344781 1.893293 0.000000
vt 2.689455 3.786586 0.000000
vt 2.344781 3.786586 0.000000
vt 2.344781 3.029269 0.000000
vt 2.000107 3.029269 0.000000
vt 2.000107 2.271951 0.000000
vt 1.655433 3.029269 0.000000
vt 2.344781 4.543903 0.000000
vt 2.689455 4.543903 0.000000
vt 2.344781 5.301220 0.000000
vt 2.689455 5.301220 0.000000
vt 2.689455 6.058537 0.000000
vt 2.151564 6.058537 0.000000
vt 2.000107 5.301220 0.000000
vt 2.000107 4.543903 0.000000
vt 2.000107 3.786586 0.000000
vt 1.613673 6.058537 0.000000
vt 1.655433 5.301220 0.000000
vt 1.655433 4.543903 0.000000
vt 1.655433 3.786586 0.000000
vt 1.310758 5.301220 0.000000
vt 1.075782 6.058537 0.000000
vt 0.997563 5.301220 0.000000
vt 0.684368 5.301220 0.000000
vt 0.997563 4.543903 0.000000
vt 0.215661 5.301220 0.000000
vt 0.000000 5.679879 0.000000
vt 0.117637 5.301220 0.000000
vt 0.058818 5.301220 0.000000
vt 0.117637 4.543903 0.000000
vt 0.058818 4.543903 0.000000
vt 0.117637 3.786586 0.000000
vt 0.058818 3.786586 0.000000
vt 0.117637 3.029269 0.000000
vt 0.058818 3.029269 0.000000
vt 0.117637 2.271951 0.000000
vt 0.058818 2.271951 0.000000
vt 0.117637 1.893293 0.000000
vt 0.058818 1.893293 0.000000
vt 0.117637 1.514634 0.000000
vt 0.058818 1.514634 0.000000
vt 0.117637 1.135976 0.000000
vt 0.058818 1.135976 0.000000
vt 0.000000 5.301220 0.000000
vt 0.000000 4.543903 0.000000
vt 0.000000 4.165244 0.000000
vt 0.000000 3.786586 0.000000
vt 0.000000 3.407927 0.000000
vt 0.000000 3.029269 0.000000
vt 0.000000 2.650610 0.000000
vt 0.000000 2.271951 0.000000
vt 0.000000 1.893293 0.000000
vt 0.000000 1.514634 0.000000
vt 0.000000 1.135976 0.000000
vt 1.310758 1.893293 0.000000
vt 1.655433 1.514634 0.000000
vt 1.310758 1.514634 0.000000
vt 1.655433 1.135976 0.000000
vt 1.310758 1.135976 0.000000
vt 0.997563 1.893293 0.000000
vt 0.997563 1.514634 0.000000
vt 0.997563 1.135976 0.000000
vt 0.997563 2.271951 0.000000
vt 0.684368 2.271951 0.000000
vt 0.684368 1.893293 0.000000
vt 0.499026 2.271951 0.000000
vt 0.499026 1.893293 0.000000
vt 0.313684 2.271951 0.000000
vt 0.313684 1.893293 0.000000
vt 0.215661 2.271951 0.000000
vt 0.215661 1.893293 0.000000
vt 0.684368 1.514634 0.000000
vt 0.684368 1.135976 0.000000
vt 0.499026 1.514634 0.000000
vt 0.499026 1.135976 0.000000
vt 0.313684 1.514634 0.000000
vt 0.313684 1.135976 0.000000
vt 0.215661 1.514634 0.000000
vt 0.215661 1.135976 0.000000
vt 2.000107 1.135976 0.000000
vt 1.310758 3.786586 0.000000
vt 1.310758 4.543903 0.000000
vt 0.499026 3.786586 0.000000
vt 0.684368 3.029269 0.000000
vt 0.499026 3.029269 0.000000
vt 0.313684 3.786586 0.000000
vt 0.313684 3.029269 0.000000
vt 0.313684 4.543903 0.000000
vt 0.215661 4.543903 0.000000
vt 0.215661 3.786586 0.000000
vt 0.215661 3.029269 0.000000
vt 0.457035 0.000014 0.000000
vt 0.437665 0.378659 0.000000
vt 0.000000 0.000000 0.000000
vt 0.437665 0.757317 0.000000
vt 0.437665 1.135976 0.000000
vt 0.875331 0.757317 0.000000
vt 0.875331 1.135976 0.000000
vt 1.312996 0.757317 0.000000
vt 1.312996 1.135976 0.000000
vt 1.750662 0.757317 0.000000
vt 1.750662 1.135976 0.000000
vt 2.044734 0.757317 0.000000
vt 2.044734 1.135976 0.000000
vt 2.191770 0.757317 0.000000
vt 2.191770 1.135976 0.000000
vt 2.338806 0.757317 0.000000
vt 2.338806 1.135976 0.000000
vt 2.426459 0.757317 0.000000
vt 2.426459 1.135976 0.000000
vt 2.514112 0.757317 0.000000
vt 2.514112 1.135976 0.000000
vt 2.601766 0.757317 0.000000
vt 2.601766 1.135976 0.000000
vt 2.689419 0.757317 0.000000
vt 2.689419 1.135976 0.000000
vt 0.875331 0.378659 0.000000
vt 0.898657 0.000001 0.000000
vt 1.312996 0.378659 0.000000
vt 1.311021 0.000002 0.000000
vt 1.682942 0.000000 0.000000
vt 1.750662 0.378659 0.000000
vt 2.009721 0.000051 0.000000
vt 2.044734 0.378659 0.000000
vt 2.150052 0.000035 0.000000
vt 2.191770 0.378659 0.000000
vt 2.275148 0.000001 0.000000
vt 2.338806 0.378659 0.000000
vt 2.395318 0.000028 0.000000
vt 2.426459 0.378659 0.000000
vt 2.502049 0.000000 0.000000
vt 2.514112 0.378659 0.000000
vt 2.595383 0.000000 0.000000
vt 2.601766 0.378659 0.000000
vt 2.689419 0.000000 0.000000
vt 2.601766 1.325305 0.000000
vt 2.689419 1.514634 0.000000
vt 2.601766 1.514634 0.000000
vt 2.689419 1.893293 0.000000
vt 2.601766 2.271951 0.000000
vt 2.689419 2.271951 0.000000
vt 2.689419 2.650610 0.000000
vt 2.601766 3.029269 0.000000
vt 2.689419 3.029269 0.000000
vt 2.689419 3.407927 0.000000
vt 2.601766 3.786586 0.000000
vt 2.689419 3.786586 0.000000
vt 2.689419 4.165244 0.000000
vt 2.601766 4.543903 0.000000
vt 2.689419 4.543903 0.000000
vt 2.601766 5.301220 0.000000
vt 2.689419 5.301220 0.000000
vt 2.601766 5.679879 0.000000
vt 2.689419 5.679879 0.000000
vt 2.689419 6.058537 0.000000
vt 2.151535 6.058537 0.000000
vt 2.426459 5.679879 0.000000
vt 2.514112 5.679879 0.000000
vt 1.613651 6.058537 0.000000
vt 1.750662 5.679879 0.000000
vt 2.044734 5.679879 0.000000
vt 2.191770 5.679879 0.000000
vt 2.191770 5.301220 0.000000
vt 2.338806 5.301220 0.000000
vt 2.338806 4.543903 0.000000
vt 2.426459 4.543903 0.000000
vt 2.426459 3.786586 0.000000
vt 2.514112 3.786586 0.000000
vt 2.514112 3.029269 0.000000
vt 1.312996 5.679879 0.000000
vt 1.075767 6.058537 0.000000
vt 0.875331 5.679879 0.000000
vt 0.537884 6.058537 0.000000
vt 0.437665 5.679879 0.000000
vt 0.000000 6.058537 0.000000
vt 0.000000 5.301220 0.000000
vt 0.000000 4.543903 0.000000
vt 0.437665 4.543903 0.000000
vt 0.437665 5.301220 0.000000
vt 0.875331 5.301220 0.000000
vt 1.312996 5.301220 0.000000
vt 1.750662 5.301220 0.000000
vt 2.044734 5.301220 0.000000
vt 0.437665 3.786586 0.000000
vt 0.000000 3.786586 0.000000
vt 0.437665 3.029269 0.000000
vt 0.000000 3.029269 0.000000
vt 0.437665 2.271951 0.000000
vt 0.000000 1.514634 0.000000
vt 0.437665 1.514634 0.000000
vt 0.437665 1.325305 0.000000
vt 0.875331 1.325305 0.000000
vt 2.514112 1.325305 0.000000
vt 2.514112 1.514634 0.000000
vt 2.514112 2.271951 0.000000
vt 2.426459 1.325305 0.000000
vt 2.426459 1.514634 0.000000
vt 2.426459 2.271951 0.000000
vt 2.426459 3.029269 0.000000
vt 2.338806 1.325305 0.000000
vt 2.338806 1.514634 0.000000
vt 2.338806 2.271951 0.000000
vt 2.338806 3.029269 0.000000
vt 2.338806 3.786586 0.000000
vt 2.191770 1.325305 0.000000
vt 2.191770 1.514634 0.000000
vt 2.191770 2.271951 0.000000
vt 2.191770 3.029269 0.000000
vt 2.191770 3.786586 0.000000
vt 2.191770 4.543903 0.000000
vt 2.044734 1.325305 0.000000
vt 2.044734 1.514634 0.000000
vt 2.044734 2.271951 0.000000
vt 2.044734 3.029269 0.000000
vt 2.044734 3.786586 0.000000
vt 2.044734 4.543903 0.000000
vt 1.750662 1.325305 0.000000
vt 1.750662 1.514634 0.000000
vt 1.750662 2.271951 0.000000
vt 1.750662 3.029269 0.000000
vt 1.750662 3.786586 0.000000
vt 1.750662 4.543903 0.000000
vt 1.312996 1.325305 0.000000
vt 1.312996 1.514634 0.000000
vt 1.312996 2.271951 0.000000
vt 1.312996 3.029269 0.000000
vt 1.312996 3.786586 0.000000
vt 1.312996 4.543903 0.000000
vt 0.875331 1.514634 0.000000
vt 0.875331 2.271951 0.000000
vt 0.875331 3.029269 0.000000
vt 0.875331 3.786586 0.000000
vt 0.875331 4.543903 0.000000
vt 2.514112 4.543903 0.000000
vt 2.426459 5.301220 0.000000
vt 2.338806 5.679879 0.000000
vt 2.514112 5.301220 0.000000
vt 0.000000 0.000000 0.000000
vt 0.093966 0.000000 0.000000
vt 0.000000 0.757317 0.000000
vt 0.058818 0.757317 0.000000
vt 0.058818 0.946646 0.000000
vt 0.117637 0.757317 0.000000
vt 0.117637 0.946646 0.000000
vt 0.215661 0.757317 0.000000
vt 0.215661 0.946646 0.000000
vt 0.313684 0.757317 0.000000
vt 0.313684 0.946646 0.000000
vt 0.499026 0.757317 0.000000
vt 0.499026 0.946646 0.000000
vt 0.684368 0.757317 0.000000
vt 0.684368 0.946646 0.000000
vt 0.997563 0.757317 0.000000
vt 0.997563 0.946646 0.000000
vt 1.310758 0.757317 0.000000
vt 1.310758 0.946646 0.000000
vt 1.655433 0.757317 0.000000
vt 1.655433 0.946646 0.000000
vt 2.000107 0.757317 0.000000
vt 2.000107 0.946646 0.000000
vt 2.344781 0.757317 0.000000
vt 2.344781 0.946646 0.000000
vt 2.689455 1.514634 0.000000
vt 2.344781 1.135976 0.000000
vt 2.344781 1.514634 0.000000
vt 2.000107 1.514634 0.000000
vt 2.000107 1.893293 0.000000
vt 1.655433 1.893293 0.000000
vt 1.655433 2.271951 0.000000
vt 1.310758 2.271951 0.000000
vt 1.310758 3.029269 0.000000
vt 0.997563 3.029269 0.000000
vt 0.997563 3.786586 0.000000
vt 0.684368 3.786586 0.000000
vt 0.684368 4.543903 0.000000
vt 0.499026 4.543903 0.000000
vt 0.499026 5.301220 0.000000
vt 0.313684 5.301220 0.000000
vt 0.537891 6.058537 0.000000
vt 0.000000 6.058537 0.000000
vt 0.187377 0.000000 0.000000
vt 0.294292 0.000002 0.000000
vt 0.414245 0.000000 0.000000
vt 0.537717 0.000010 0.000000
vt 0.681663 0.000031 0.000000
vt 1.006402 0.000001 0.000000
vt 1.376801 0.000004 0.000000
vt 1.791775 0.000002 0.000000
vt 2.233223 0.000001 0.000000
vt 2.689455 0.000000 0.000000
vt 2.689455 3.029269 0.000000
vt 2.344781 2.271951 0.000000
vt 2.344781 1.893293 0.000000
vt 2.689455 3.786586 0.000000
vt 2.344781 3.786586 0.000000
vt 2.344781 3.029269 0.000000
vt 2.000107 3.029269 0.000000
vt 2.000107 2.271951 0.000000
vt 1.655433 3.029269 0.000000
vt 2.344781 4.543903 0.000000
vt 2.689455 4.543903 0.000000
vt 2.344781 5.301220 0.000000
vt 2.689455 5.301220 0.000000
vt 2.689455 6.058537 0.000000
vt 2.151564 6.058537 0.000000
vt 2.000107 5.301220 0.000000
vt 2.000107 4.543903 0.000000
vt 2.000107 3.786586 0.000000
vt 1.613673 6.058537 0.000000
vt 1.655433 5.301220 0.000000
vt 1.655433 4.543903 0.000000
vt 1.655433 3.786586 0.000000
vt 1.310758 5.301220 0.000000
vt 1.075782 6.058537 0.000000
vt 0.997563 5.301220 0.000000
vt 0.684368 5.301220 0.000000
vt 0.997563 4.543903 0.000000
vt 0.215661 5.301220 0.000000
vt 0.000000 5.679879 0.000000
vt 0.117637 5.301220 0.000000
vt 0.058818 5.301220 0.000000
vt 0.117637 4.543903 0.000000
vt 0.058818 4.543903 0.000000
vt 0.117637 3.786586 0.000000
vt 0.058818 3.786586 0.000000
vt 0.117637 3.029269 0.000000
vt 0.058818 3.029269 0.000000
vt 0.117637 2.271951 0.000000
vt 0.058818 2.271951 0.000000
vt 0.117637 1.893293 0.000000
vt 0.058818 1.893293 0.000000
vt 0.117637 1.514634 0.000000
vt 0.058818 1.514634 0.000000
vt 0.117637 1.135976 0.000000
vt 0.058818 1.135976 0.000000
vt 0.000000 5.301220 0.000000
vt 0.000000 4.543903 0.000000
vt 0.000000 4.165244 0.000000
vt 0.000000 3.786586 0.000000
vt 0.000000 3.407927 0.000000
vt 0.000000 3.029269 0.000000
vt 0.000000 2.650610 0.000000
vt 0.000000 2.271951 0.000000
vt 0.000000 1.893293 0.000000
vt 0.000000 1.514634 0.000000
vt 0.000000 1.135976 0.000000
vt 1.310758 1.893293 0.000000
vt 1.655433 1.514634 0.000000
vt 1.310758 1.514634 0.000000
vt 1.655433 1.135976 0.000000
vt 1.310758 1.135976 0.000000
vt 0.997563 1.893293 0.000000
vt 0.997563 1.514634 0.000000
vt 0.997563 1.135976 0.000000
vt 0.997563 2.271951 0.000000
vt 0.684368 2.271951 0.000000
vt 0.684368 1.893293 0.000000
vt 0.499026 2.271951 0.000000
vt 0.499026 1.893293 0.000000
vt 0.313684 2.271951 0.000000
vt 0.313684 1.893293 0.000000
vt 0.215661 2.271951 0.000000
vt 0.215661 1.893293 0.000000
vt 0.684368 1.514634 0.000000
vt 0.684368 1.135976 0.000000
vt 0.499026 1.514634 0.000000
vt 0.499026 1.135976 0.000000
vt 0.313684 1.514634 0.000000
vt 0.313684 1.135976 0.000000
vt 0.215661 1.514634 0.000000
vt 0.215661 1.135976 0.000000
vt 2.000107 1.135976 0.000000
vt 1.310758 3.786586 0.000000
vt 1.310758 4.543903 0.000000
vt 0.499026 3.786586 0.000000
vt 0.684368 3.029269 0.000000
vt 0.499026 3.029269 0.000000
vt 0.313684 3.786586 0.000000
vt 0.313684 3.029269 0.000000
vt 0.313684 4.543903 0.000000
vt 0.215661 4.543903 0.000000
vt 0.215661 3.786586 0.000000
vt 0.215661 3.029269 0.000000
vt 0.457035 0.000014 0.000000
vt 0.437665 0.378659 0.000000
vt 0.000000 0.000000 0.000000
vt 0.437665 0.757317 0.000000
vt 0.437665 1.135976 0.000000
vt 0.875331 0.757317 0.000000
vt 0.875331 1.135976 0.000000
vt 1.312996 0.757317 0.000000
vt 1.312996 1.135976 0.000000
vt 1.750662 0.757317 0.000000
vt 1.750662 1.135976 0.000000
vt 2.044734 0.757317 0.000000
vt 2.044734 1.135976 0.000000
vt 2.191770 0.757317 0.000000
vt 2.191770 1.135976 0.000000
vt 2.338806 0.757317 0.000000
vt 2.338806 1.135976 0.000000
vt 2.426459 0.757317 0.000000
vt 2.426459 1.135976 0.000000
vt 2.514112 0.757317 0.000000
vt 2.514112 1.135976 0.000000
vt 2.601766 0.757317 0.000000
vt 2.601766 1.135976 0.000000
vt 2.689419 0.757317 0.000000
vt 2.689419 1.135976 0.000000
vt 0.875331 0.378659 0.000000
vt 0.898657 0.000001 0.000000
vt 1.312996 0.378659 0.000000
vt 1.311021 0.000002 0.000000
vt 1.682942 0.000000 0.000000
vt 1.750662 0.378659 0.000000
vt 2.009721 0.000051 0.000000
vt 2.044734 0.378659 0.000000
vt 2.150052 0.000035 0.000000
vt 2.191770 0.378659 0.000000
vt 2.275148 0.000001 0.000000
vt 2.338806 0.378659 0.000000
vt 2.395318 0.000028 0.000000
vt 2.426459 0.378659 0.000000
vt 2.502049 0.000000 0.000000
vt 2.514112 0.378659 0.000000
vt 2.595383 0.000000 0.000000
vt 2.601766 0.378659 0.000000
vt 2.689419 0.000000 0.000000
vt 2.601766 1.325305 0.000000
vt 2.689419 1.514634 0.000000
vt 2.601766 1.514634 0.000000
vt 2.689419 1.893293 0.000000
vt 2.601766 2.271951 0.000000
vt 2.689419 2.271951 0.000000
vt 2.689419 2.650610 0.000000
vt 2.601766 3.029269 0.000000
vt 2.689419 3.029269 0.000000
vt 2.689419 3.407927 0.000000
vt 2.601766 3.786586 0.000000
vt 2.689419 3.786586 0.000000
vt 2.689419 4.165244 0.000000
vt 2.601766 4.543903 0.000000
vt 2.689419 4.543903 0.000000
vt 2.601766 5.301220 0.000000
vt 2.689419 5.301220 0.000000
vt 2.601766 5.679879 0.000000
vt 2.689419 5.679879 0.000000
vt 2.689419 6.058537 0.000000
vt 2.151535 6.058537 0.000000
vt 2.426459 5.679879 0.000000
vt 2.514112 5.679879 0.000000
vt 1.613651 6.058537 0.000000
vt 1.750662 5.679879 0.000000
vt 2.044734 5.679879 0.000000
vt 2.191770 5.679879 0.000000
vt 2.191770 5.301220 0.000000
vt 2.338806 5.301220 0.000000
vt 2.338806 4.543903 0.000000
vt 2.426459 4.543903 0.000000
vt 2.426459 3.786586 0.000000
vt 2.514112 3.786586 0.000000
vt 2.514112 3.029269 0.000000
vt 1.312996 5.679879 0.000000
vt 1.075767 6.058537 0.000000
vt 0.875331 5.679879 0.000000
vt 0.537884 6.058537 0.000000
vt 0.437665 5.679879 0.000000
vt 0.000000 6.058537 0.000000
vt 0.000000 5.301220 0.000000
vt 0.000000 4.543903 0.000000
vt 0.437665 4.543903 0.000000
vt 0.437665 5.301220 0.000000
vt 0.875331 5.301220 0.000000
vt 1.312996 5.301220 0.000000
vt 1.750662 5.301220 0.000000
vt 2.044734 5.301220 0.000000
vt 0.437665 3.786586 0.000000
vt 0.000000 3.786586 0.000000
vt 0.437665 3.029269 0.000000
vt 0.000000 3.029269 0.000000
vt 0.437665 2.271951 0.000000
vt 0.000000 1.514634 0.000000
vt 0.437665 1.514634 0.000000
vt 0.437665 1.325305 0.000000
vt 0.875331 1.325305 0.000000
vt 2.514112 1.325305 0.000000
vt 2.514112 1.514634 0.000000
vt 2.514112 2.271951 0.000000
vt 2.426459 1.325305 0.000000
vt 2.426459 1.514634 0.000000
vt 2.426459 2.271951 0.000000
vt 2.426459 3.029269 0.000000
vt 2.338806 1.325305 0.000000
vt 2.338806 1.514634 0.000000
vt 2.338806 2.271951 0.000000
vt 2.338806 3.029269 0.000000
vt 2.338806 3.786586 0.000000
vt 2.191770 1.325305 0.000000
vt 2.191770 1.514634 0.000000
vt 2.191770 2.271951 0.000000
vt 2.191770 3.029269 0.000000
vt 2.191770 3.786586 0.000000
vt 2.191770 4.543903 0.000000
vt 2.044734 1.325305 0.000000
vt 2.044734 1.514634 0.000000
vt 2.044734 2.271951 0.000000
vt 2.044734 3.029269 0.000000
vt 2.044734 3.786586 0.000000
vt 2.044734 4.543903 0.000000
vt 1.750662 1.325305 0.000000
vt 1.750662 1.514634 0.000000
vt 1.750662 2.271951 0.000000
vt 1.750662 3.029269 0.000000
vt 1.750662 3.786586 0.000000
vt 1.750662 4.543903 0.000000
vt 1.312996 1.325305 0.000000
vt 1.312996 1.514634 0.000000
vt 1.312996 2.271951 0.000000
vt 1.312996 3.029269 0.000000
vt 1.312996 3.786586 0.000000
vt 1.312996 4.543903 0.000000
vt 0.875331 1.514634 0.000000
vt 0.875331 2.271951 0.000000
vt 0.875331 3.029269 0.000000
vt 0.875331 3.786586 0.000000
vt 0.875331 4.543903 0.000000
vt 2.514112 4.543903 0.000000
vt 2.426459 5.301220 0.000000
vt 2.338806 5.679879 0.000000
vt 2.514112 5.301220 0.000000
vt 2.500000 3.500000 0.000000
vt 2.500000 -2.500000 0.000000
vt 3.500000 3.500000 0.000000
vt 3.500000 -3.500000 0.000000
vt -2.500000 -2.500000 0.000000
vt -3.500000 -3.500000 0.000000
vt -3.500000 3.500000 0.000000
vt -2.500000 3.500000 0.000000
vn -0.000000 -1.000000 0.000000
vn 0.237916 -0.971154 0.016013
vn 0.131917 -0.991261 -0.000000
vn 0.272042 -0.962226 0.010731
vn 0.304770 -0.952363 0.010980
vn 0.395333 -0.918277 0.021889
vn 0.423531 -0.905608 0.022277
vn 0.578963 -0.814364 0.040173
vn 0.600754 -0.798402 0.040615
vn 0.698255 -0.713654 0.056016
vn 0.716450 -0.695354 0.056416
vn 0.817145 -0.570868 0.079897
vn 0.827247 -0.556092 0.080149
vn 0.884347 -0.456362 0.098307
vn 0.891083 -0.443031 0.098460
vn 0.935417 -0.332202 0.120979
vn 0.938901 -0.322200 0.121048
vn 0.960175 -0.243407 0.137171
vn 0.962047 -0.235881 0.137205
vn 0.974058 -0.169700 0.149710
vn 0.974963 -0.164406 0.149723
vn 0.981550 -0.107609 0.158051
vn 0.981915 -0.104218 0.158055
vn 0.985265 -0.052314 0.162837
vn 0.985351 -0.050660 0.162838
vn 0.986394 -0.000000 0.164399
vn 0.985436 -0.048993 0.162839
vn 0.985598 -0.045614 0.162839
vn 0.982959 -0.093860 0.158057
vn 0.983609 -0.086796 0.158049
vn 0.979175 -0.137109 0.149722
vn 0.980698 -0.125800 0.149688
vn 0.973922 -0.180697 0.137202
vn 0.979573 -0.147210 0.136989
vn 0.971848 -0.202265 0.120836
vn 0.980666 -0.154391 0.120243
vn 0.972340 -0.212096 0.097826
vn 0.985038 -0.142754 0.096549
vn 0.979104 -0.187393 0.078992
vn 0.992582 -0.094211 0.076851
vn 0.992950 -0.105756 0.053534
vn 0.996925 0.000000 0.078359
vn 1.000000 -0.000000 -0.000000
vn 0.445379 -0.894723 0.033291
vn 0.602986 -0.796107 0.051194
vn 0.717737 -0.692960 0.068257
vn 0.795413 -0.600359 0.082989
vn 0.855596 -0.508424 0.097268
vn 0.922012 -0.367728 0.121120
vn 0.956759 -0.255103 0.139765
vn 0.974893 -0.161404 0.153405
vn 0.983750 -0.078165 0.161638
vn 0.986394 0.000000 0.164399
vn 0.986394 0.000000 0.164399
vn 0.985895 -0.038677 0.162832
vn 0.985751 -0.042176 0.162836
vn 0.986394 0.000000 0.164399
vn 0.986367 -0.024044 0.162793
vn 0.986154 -0.031491 0.162817
vn 0.985314 -0.064816 0.157972
vn 0.984220 -0.079602 0.158032
vn 0.983426 -0.102499 0.149557
vn 0.986531 -0.016323 0.162758
vn 0.986394 0.000000 0.164399
vn 0.986639 -0.008313 0.162712
vn 0.986394 0.000000 0.164399
vn 0.986394 0.000000 0.164399
vn 0.987099 0.000000 0.160110
vn 0.987365 -0.017094 0.157541
vn 0.986911 -0.033581 0.157730
vn 0.986219 -0.049483 0.157872
vn 0.989198 0.000000 0.146587
vn 0.988532 -0.027026 0.148574
vn 0.987408 -0.053119 0.149010
vn 0.985684 -0.078275 0.149334
vn 0.990059 -0.038642 0.135237
vn 0.992595 0.000000 0.121468
vn 0.991592 -0.052947 0.118077
vn 0.992914 -0.071703 0.094764
vn 0.987337 -0.104526 0.119331
vn 0.990291 -0.133193 0.039794
vn 0.997449 -0.071382 -0.000000
vn 0.987944 -0.153160 0.022562
vn 0.987665 -0.156174 0.011277
vn 0.946415 -0.322041 0.024245
vn 0.941670 -0.336314 0.012306
vn 0.870171 -0.492103 0.025233
vn 0.851624 -0.523994 0.012953
vn 0.763460 -0.645358 0.025344
vn 0.720071 -0.693778 0.013032
vn 0.639313 -0.768551 0.024646
vn 0.565353 -0.824753 0.012555
vn 0.575569 -0.817399 0.024072
vn 0.486791 -0.873433 0.012165
vn 0.512925 -0.858115 0.023398
vn 0.410745 -0.911675 0.011713
vn 0.452577 -0.891437 0.022660
vn 0.338844 -0.940775 0.011228
vn 0.988445 -0.151581 -0.000000
vn 0.941539 -0.336904 -0.000000
vn 0.898721 -0.438522 -0.000000
vn 0.840710 -0.541485 -0.000000
vn 0.767622 -0.640903 -0.000000
vn 0.681625 -0.731702 -0.000000
vn 0.586727 -0.809785 -0.000000
vn 0.487896 -0.872902 -0.000000
vn 0.389921 -0.920848 -0.000000
vn 0.296552 -0.955017 -0.000000
vn 0.210174 -0.977664 -0.000000
vn 0.970768 -0.196910 0.137248
vn 0.977557 -0.148194 0.149736
vn 0.967415 -0.212766 0.137257
vn 0.975849 -0.159057 0.149732
vn 0.963879 -0.228265 0.137231
vn 0.955230 -0.269908 0.121186
vn 0.948933 -0.291279 0.121173
vn 0.942317 -0.312045 0.121103
vn 0.961172 -0.247941 0.121136
vn 0.934456 -0.342066 0.098912
vn 0.922851 -0.372242 0.098903
vn 0.894815 -0.438987 0.081217
vn 0.876301 -0.474898 0.081053
vn 0.837130 -0.543898 0.058201
vn 0.804450 -0.591193 0.057898
vn 0.756488 -0.652590 0.043044
vn 0.712251 -0.700636 0.042506
vn 0.910571 -0.401372 0.098794
vn 0.897707 -0.429420 0.098593
vn 0.857058 -0.508849 0.080769
vn 0.837280 -0.540833 0.080379
vn 0.770082 -0.635355 0.057419
vn 0.734525 -0.676202 0.056785
vn 0.667441 -0.743487 0.041828
vn 0.622807 -0.781298 0.041040
vn 0.982272 -0.100797 0.158058
vn 0.984236 -0.112334 0.136601
vn 0.987777 -0.076120 0.136023
vn 0.957455 -0.277154 0.080411
vn 0.955277 -0.278788 0.098604
vn 0.928838 -0.361493 0.081130
vn 0.941951 -0.330805 0.057408
vn 0.895520 -0.441197 0.058219
vn 0.974490 -0.217382 0.055803
vn 0.960939 -0.273567 0.041928
vn 0.909881 -0.412612 0.043226
vn 0.839728 -0.541256 0.043577
vn 0.983716 0.078587 0.161640
vn 0.984252 0.071015 0.161881
vn 0.984543 0.066836 0.161887
vn 0.984822 0.062585 0.161890
vn 0.978142 0.139695 0.154027
vn 0.979362 0.130846 0.154041
vn 0.963308 0.229044 0.139915
vn 0.966566 0.214849 0.139963
vn 0.928792 0.351547 0.117307
vn 0.936757 0.329683 0.117455
vn 0.872621 0.479109 0.094804
vn 0.887068 0.451729 0.095135
vn 0.814650 0.574448 0.079717
vn 0.835380 0.543790 0.080210
vn 0.730257 0.680407 0.061408
vn 0.761666 0.644988 0.062083
vn 0.638376 0.768221 0.048101
vn 0.679063 0.732445 0.048969
vn 0.511399 0.858714 0.032873
vn 0.559946 0.827842 0.033732
vn 0.332590 0.942932 0.016222
vn 0.394619 0.918690 0.016878
vn 0.131917 0.991261 -0.000000
vn 0.210174 0.977664 -0.000000
vn 0.976866 0.148380 0.154001
vn 0.974860 0.161629 0.153378
vn 0.959918 0.242905 0.139839
vn 0.956532 0.255923 0.139819
vn 0.921726 0.368446 0.121113
vn 0.920498 0.372789 0.117100
vn 0.855159 0.509183 0.097135
vn 0.857819 0.505209 0.094396
vn 0.795687 0.599967 0.083201
vn 0.793671 0.603178 0.079141
vn 0.719170 0.691467 0.068319
vn 0.698635 0.712905 0.060632
vn 0.600786 0.797769 0.051193
vn 0.598134 0.800008 0.047149
vn 0.443995 0.895412 0.033258
vn 0.464921 0.884774 0.031980
vn 0.238283 0.971062 0.016091
vn 0.275062 0.961301 0.015565
vn -0.000000 1.000000 0.000000
vn 0.427199 0.903994 0.017199
vn 0.296552 0.955017 0.000000
vn 0.460707 0.887379 0.017512
vn 0.389921 0.920848 0.000000
vn 0.601031 0.799010 0.018599
vn 0.487896 0.872902 0.000000
vn 0.586727 0.809785 0.000000
vn 0.740345 0.671952 0.019213
vn 0.681625 0.731702 0.000000
vn 0.767622 0.640903 0.000000
vn 0.859721 0.510406 0.019115
vn 0.840710 0.541485 0.000000
vn 0.898721 0.438522 0.000000
vn 0.943428 0.331074 0.018264
vn 0.941539 0.336904 0.000000
vn 0.987668 0.155655 0.016860
vn 0.988445 0.151581 0.000000
vn 0.997072 0.074763 0.016045
vn 0.997449 0.071382 0.000000
vn 1.000000 0.000000 0.000000
vn 0.996936 0.000000 0.078220
vn 0.997255 0.058393 0.045538
vn 0.997045 0.069922 0.031814
vn 0.992594 0.000000 0.121481
vn 0.993171 0.027333 0.113418
vn 0.995171 0.038449 0.090308
vn 0.996077 0.046606 0.075229
vn 0.992680 0.093404 0.076565
vn 0.992763 0.104847 0.058552
vn 0.975088 0.213304 0.060863
vn 0.968328 0.244807 0.049094
vn 0.927155 0.371252 0.050555
vn 0.893568 0.447462 0.036254
vn 0.809985 0.585315 0.036478
vn 0.990307 0.018432 0.137670
vn 0.989192 0.000000 0.146629
vn 0.988157 0.011153 0.153037
vn 0.987096 0.000000 0.160131
vn 0.986835 0.005347 0.161645
vn 0.986610 0.020818 0.161763
vn 0.986785 0.010597 0.161689
vn 0.987944 0.022120 0.153221
vn 0.989742 0.036573 0.138108
vn 0.991958 0.054524 0.114218
vn 0.992844 0.076806 0.091445
vn 0.986344 0.030679 0.161819
vn 0.985995 0.040196 0.161857
vn 0.985574 0.049385 0.161881
vn 0.985087 0.058261 0.161890
vn 0.984957 0.060432 0.161890
vn 0.979951 0.126360 0.154043
vn 0.584854 0.810419 0.034141
vn 0.610087 0.791582 0.034532
vn 0.712228 0.701034 0.035825
vn 0.699423 0.713002 0.049364
vn 0.719701 0.692501 0.049727
vn 0.798441 0.599926 0.050803
vn 0.869317 0.491604 0.051123
vn 0.777187 0.626171 0.062376
vn 0.792525 0.606614 0.062637
vn 0.851088 0.521193 0.063307
vn 0.902828 0.425321 0.063278
vn 0.944849 0.321495 0.062465
vn 0.845598 0.527727 0.080421
vn 0.855689 0.511174 0.080606
vn 0.894294 0.440079 0.081049
vn 0.928848 0.361510 0.080939
vn 0.957689 0.276410 0.080185
vn 0.979325 0.186343 0.078730
vn 0.894129 0.437559 0.095269
vn 0.901063 0.423070 0.095381
vn 0.927274 0.361976 0.095582
vn 0.950382 0.296115 0.095339
vn 0.969515 0.226037 0.094592
vn 0.983878 0.152573 0.093300
vn 0.940604 0.318521 0.117506
vn 0.944355 0.307209 0.117540
vn 0.958297 0.260495 0.117508
vn 0.970309 0.211585 0.117182
vn 0.980095 0.160729 0.116537
vn 0.987386 0.108246 0.115553
vn 0.968142 0.207626 0.139976
vn 0.969679 0.200319 0.139981
vn 0.975417 0.170244 0.139921
vn 0.980413 0.138813 0.139720
vn 0.984548 0.106037 0.139362
vn 0.987700 0.071941 0.138830
vn 0.980524 0.121832 0.154043
vn 0.982655 0.103298 0.154006
vn 0.984501 0.084076 0.153912
vn 0.986025 0.064147 0.153754
vn 0.987187 0.043499 0.153526
vn 0.954503 0.296134 0.035068
vn 0.991780 0.119065 0.046869
vn 0.997022 0.051757 0.057176
vn 0.989126 0.143311 0.033049
vn -0.237916 0.971154 0.016013
vn -0.131917 0.991261 0.000000
vn -0.272042 0.962226 0.010731
vn -0.304770 0.952363 0.010980
vn -0.395333 0.918277 0.021889
vn -0.423531 0.905608 0.022277
vn -0.578963 0.814364 0.040173
vn -0.600754 0.798402 0.040615
vn -0.698255 0.713654 0.056016
vn -0.716450 0.695354 0.056416
vn -0.817145 0.570868 0.079897
vn -0.827247 0.556092 0.080149
vn -0.884347 0.456362 0.098307
vn -0.891083 0.443031 0.098460
vn -0.935417 0.332202 0.120979
vn -0.938901 0.322200 0.121048
vn -0.960175 0.243407 0.137171
vn -0.962047 0.235881 0.137205
vn -0.974058 0.169700 0.149710
vn -0.974963 0.164406 0.149723
vn -0.981550 0.107609 0.158051
vn -0.981915 0.104218 0.158055
vn -0.985265 0.052314 0.162837
vn -0.985351 0.050660 0.162838
vn -0.986394 0.000000 0.164399
vn -0.985436 0.048993 0.162839
vn -0.985598 0.045614 0.162839
vn -0.982959 0.093860 0.158057
vn -0.983609 0.086796 0.158049
vn -0.979175 0.137109 0.149722
vn -0.980698 0.125800 0.149688
vn -0.973922 0.180697 0.137202
vn -0.979573 0.147210 0.136989
vn -0.971848 0.202265 0.120836
vn -0.980666 0.154391 0.120243
vn -0.972340 0.212096 0.097826
vn -0.985038 0.142754 0.096549
vn -0.979104 0.187393 0.078992
vn -0.992582 0.094211 0.076851
vn -0.992950 0.105756 0.053534
vn -0.996925 0.000000 0.078359
vn -1.000000 0.000000 0.000000
vn -0.445379 0.894723 0.033291
vn -0.602986 0.796107 0.051194
vn -0.717737 0.692960 0.068257
vn -0.795413 0.600359 0.082989
vn -0.855596 0.508424 0.097268
vn -0.922012 0.367728 0.121120
vn -0.956759 0.255103 0.139765
vn -0.974893 0.161404 0.153405
vn -0.983750 0.078165 0.161638
vn -0.986394 0.000000 0.164399
vn -0.986394 0.000000 0.164399
vn -0.985895 0.038677 0.162832
vn -0.985751 0.042176 0.162836
vn -0.986394 0.000000 0.164399
vn -0.986367 0.024044 0.162793
vn -0.986154 0.031491 0.162817
vn -0.985314 0.064816 0.157972
vn -0.984220 0.079602 0.158032
vn -0.983426 0.102499 0.149557
vn -0.986531 0.016323 0.162758
vn -0.986394 -0.000000 0.164399
vn -0.986639 0.008313 0.162712
vn -0.986394 0.000000 0.164399
vn -0.986394 0.000000 0.164399
vn -0.987099 0.000000 0.160110
vn -0.987365 0.017094 0.157541
vn -0.986911 0.033581 0.157730
vn -0.986219 0.049483 0.157872
vn -0.989198 0.000000 0.146587
vn -0.988532 0.027026 0.148574
vn -0.987408 0.053119 0.149010
vn -0.985684 0.078275 0.149334
vn -0.990059 0.038642 0.135237
vn -0.992595 0.000000 0.121468
vn -0.991592 0.052947 0.118077
vn -0.992914 0.071703 0.094764
vn -0.987337 0.104526 0.119331
vn -0.990291 0.133193 0.039794
vn -0.997449 0.071382 0.000000
vn -0.987944 0.153160 0.022562
vn -0.987665 0.156174 0.011277
vn -0.946415 0.322041 0.024245
vn -0.941670 0.336314 0.012306
vn -0.870171 0.492103 0.025233
vn -0.851624 0.523994 0.012953
vn -0.763460 0.645358 0.025344
vn -0.720071 0.693778 0.013032
vn -0.639313 0.768551 0.024646
vn -0.565353 0.824753 0.012555
vn -0.575569 0.817399 0.024072
vn -0.486791 0.873433 0.012165
vn -0.512925 0.858115 0.023398
vn -0.410745 0.911675 0.011713
vn -0.452577 0.891437 0.022660
vn -0.338844 0.940775 0.011228
vn -0.988445 0.151581 0.000000
vn -0.941539 0.336904 0.000000
vn -0.898721 0.438522 0.000000
vn -0.840710 0.541485 0.000000
vn -0.767622 0.640903 0.000000
vn -0.681625 0.731702 0.000000
vn -0.586727 0.809785 0.000000
vn -0.487896 0.872902 0.000000
vn -0.389921 0.920848 0.000000
vn -0.296552 0.955017 0.000000
vn -0.210174 0.977664 0.000000
vn -0.970768 0.196910 0.137248
vn -0.977557 0.148194 0.149736
vn -0.967415 0.212766 0.137257
vn -0.975849 0.159057 0.149732
vn -0.963879 0.228265 0.137231
vn -0.955230 0.269908 0.121186
vn -0.948933 0.291279 0.121173
vn -0.942317 0.312045 0.121103
vn -0.961172 0.247941 0.121136
vn -0.934456 0.342066 0.098912
vn -0.922851 0.372242 0.098903
vn -0.894815 0.438987 0.081217
vn -0.876301 0.474898 0.081053
vn -0.837130 0.543898 0.058201
vn -0.804450 0.591193 0.057898
vn -0.756488 0.652590 0.043044
vn -0.712251 0.700636 0.042506
vn -0.910571 0.401372 0.098794
vn -0.897707 0.429420 0.098593
vn -0.857058 0.508849 0.080769
vn -0.837280 0.540833 0.080379
vn -0.770082 0.635355 0.057419
vn -0.734525 0.676202 0.056785
vn -0.667441 0.743487 0.041828
vn -0.622807 0.781298 0.041040
vn -0.982272 0.100797 0.158058
vn -0.984236 0.112334 0.136601
vn -0.987777 0.076120 0.136023
vn -0.957455 0.277154 0.080411
vn -0.955277 0.278788 0.098604
vn -0.928838 0.361493 0.081130
vn -0.941951 0.330805 0.057408
vn -0.895520 0.441197 0.058219
vn -0.974490 0.217382 0.055803
vn -0.960939 0.273567 0.041928
vn -0.909881 0.412612 0.043226
vn -0.839728 0.541256 0.043577
vn -0.983716 -0.078587 0.161640
vn -0.984252 -0.071015 0.161881
vn -0.984543 -0.066836 0.161887
vn -0.984822 -0.062585 0.161890
vn -0.978142 -0.139695 0.154027
vn -0.979362 -0.130846 0.154041
vn -0.963308 -0.229044 0.139915
vn -0.966566 -0.214849 0.139963
vn -0.928792 -0.351547 0.117307
vn -0.936757 -0.329683 0.117455
vn -0.872621 -0.479109 0.094804
vn -0.887068 -0.451729 0.095135
vn -0.814650 -0.574448 0.079717
vn -0.835380 -0.543790 0.080210
vn -0.730257 -0.680407 0.061408
vn -0.761666 -0.644988 0.062083
vn -0.638376 -0.768221 0.048101
vn -0.679063 -0.732445 0.048969
vn -0.511399 -0.858714 0.032873
vn -0.559946 -0.827842 0.033732
vn -0.332590 -0.942932 0.016222
vn -0.394619 -0.918690 0.016878
vn -0.131917 -0.991261 -0.000000
vn -0.210174 -0.977664 -0.000000
vn -0.976866 -0.148380 0.154001
vn -0.974860 -0.161629 0.153378
vn -0.959918 -0.242905 0.139839
vn -0.956532 -0.255923 0.139819
vn -0.921726 -0.368446 0.121113
vn -0.920498 -0.372789 0.117100
vn -0.855159 -0.509183 0.097135
vn -0.857819 -0.505209 0.094396
vn -0.795687 -0.599967 0.083201
vn -0.793671 -0.603178 0.079141
vn -0.719170 -0.691467 0.068319
vn -0.698635 -0.712905 0.060632
vn -0.600786 -0.797769 0.051193
vn -0.598134 -0.800008 0.047149
vn -0.443995 -0.895412 0.033258
vn -0.464921 -0.884774 0.031980
vn -0.238283 -0.971062 0.016091
vn -0.275062 -0.961301 0.015565
vn -0.427199 -0.903994 0.017199
vn -0.296552 -0.955017 -0.000000
vn -0.460707 -0.887379 0.017512
vn -0.389921 -0.920848 -0.000000
vn -0.601031 -0.799010 0.018599
vn -0.487896 -0.872902 -0.000000
vn -0.586727 -0.809785 -0.000000
vn -0.740345 -0.671952 0.019213
vn -0.681625 -0.731702 -0.000000
vn -0.767622 -0.640903 -0.000000
vn -0.859721 -0.510406 0.019115
vn -0.840710 -0.541485 -0.000000
vn -0.898721 -0.438522 -0.000000
vn -0.943428 -0.331074 0.018264
vn -0.941539 -0.336904 -0.000000
vn -0.987668 -0.155655 0.016860
vn -0.988445 -0.151581 -0.000000
vn -0.997072 -0.074763 0.016045
vn -0.997449 -0.071382 -0.000000
vn -1.000000 0.000000 -0.000000
vn -0.996936 0.000000 0.078220
vn -0.997255 -0.058393 0.045538
vn -0.997045 -0.069922 0.031814
vn -0.992594 0.000000 0.121481
vn -0.993171 -0.027333 0.113418
vn -0.995171 -0.038449 0.090308
vn -0.996077 -0.046606 0.075229
vn -0.992680 -0.093404 0.076565
vn -0.992763 -0.104847 0.058552
vn -0.975088 -0.213304 0.060863
vn -0.968328 -0.244807 0.049094
vn -0.927155 -0.371252 0.050555
vn -0.893568 -0.447462 0.036254
vn -0.809985 -0.585315 0.036478
vn -0.990307 -0.018432 0.137670
vn -0.989192 0.000000 0.146629
vn -0.988157 -0.011153 0.153037
vn -0.987096 0.000000 0.160131
vn -0.986835 -0.005347 0.161645
vn -0.986610 -0.020818 0.161763
vn -0.986785 -0.010597 0.161689
vn -0.987944 -0.022120 0.153221
vn -0.989742 -0.036573 0.138108
vn -0.991958 -0.054524 0.114218
vn -0.992844 -0.076806 0.091445
vn -0.986344 -0.030679 0.161819
vn -0.985995 -0.040196 0.161857
vn -0.985574 -0.049385 0.161881
vn -0.985087 -0.058261 0.161890
vn -0.984957 -0.060432 0.161890
vn -0.979951 -0.126360 0.154043
vn -0.584854 -0.810419 0.034141
vn -0.610087 -0.791582 0.034532
vn -0.712228 -0.701034 0.035825
vn -0.699423 -0.713002 0.049364
vn -0.719701 -0.692501 0.049727
vn -0.798441 -0.599926 0.050803
vn -0.869317 -0.491604 0.051123
vn -0.777187 -0.626171 0.062376
vn -0.792525 -0.606614 0.062637
vn -0.851088 -0.521193 0.063307
vn -0.902828 -0.425321 0.063278
vn -0.944849 -0.321495 0.062465
vn -0.845598 -0.527727 0.080421
vn -0.855689 -0.511174 0.080606
vn -0.894294 -0.440079 0.081049
vn -0.928848 -0.361510 0.080939
vn -0.957689 -0.276410 0.080185
vn -0.979325 -0.186343 0.078730
vn -0.894129 -0.437559 0.095269
vn -0.901063 -0.423070 0.095381
vn -0.927274 -0.361976 0.095582
vn -0.950382 -0.296115 0.095339
vn -0.969515 -0.226037 0.094592
vn -0.983878 -0.152573 0.093300
vn -0.940604 -0.318521 0.117506
vn -0.944355 -0.307209 0.117540
vn -0.958297 -0.260495 0.117508
vn -0.970309 -0.211585 0.117182
vn -0.980095 -0.160729 0.116537
vn -0.987386 -0.108246 0.115553
vn -0.968142 -0.207626 0.139976
vn -0.969679 -0.200319 0.139981
vn -0.975417 -0.170244 0.139921
vn -0.980413 -0.138813 0.139720
vn -0.984548 -0.106037 0.139362
vn -0.987700 -0.071941 0.138830
vn -0.980524 -0.121832 0.154043
vn -0.982655 -0.103298 0.154006
vn -0.984501 -0.084076 0.153912
vn -0.986025 -0.064147 0.153754
vn -0.987187 -0.043499 0.153526
vn -0.954503 -0.296134 0.035068
vn -0.991780 -0.119065 0.046869
vn -0.997022 -0.051757 0.057176
vn -0.989126 -0.143311 0.033049
vn 1.000000 0.000000 0.000000
vn 1.000000 0.000000 0.000000
vn 1.000000 0.000000 0.000000
vn 1.000000 0.000000 0.000000
vn 1.000000 0.000000 0.000000
vn 1.000000 0.000000 0.000000
vn 1.000000 0.000000 0.000000
vn 1.000000 0.000000 0.000000
usemtl Steel_-_Satin
f 1/1/1 2/2/2 36/3/3
f 36/3/3 2/2/2 49/4/4
f 36/3/3 49/4/4 137/5/5
f 137/5/5 49/4/4 48/6/6
f 137/5/5 48/6/6 138/7/7
f 138/7/7 48/6/6 47/8/8
f 138/7/7 47/8/8 139/9/9
f 139/9/9 47/8/8 46/10/10
f 139/9/9 46/10/10 140/11/11
f 140/11/11 46/10/10 45/12/12
f 140/11/11 45/12/12 141/13/13
f 141/13/13 45/12/12 44/14/14
f 141/13/13 44/14/14 142/15/15
f 142/15/15 44/14/14 43/16/16
f 142/15/15 43/16/16 143/17/17
f 143/17/17 43/16/16 42/18/18
f 143/17/17 42/18/18 144/19/19
f 144/19/19 42/18/18 41/20/20
f 144/19/19 41/20/20 145/21/21
f 145/21/21 41/20/20 40/22/22
f 145/21/21 40/22/22 146/23/23
f 146/23/23 40/22/22 39/24/24
f 146/23/23 39/24/24 37/25/25
f 37/25/25 39/24/24 13/26/26
f 37/25/25 13/26/26 136/27/27
f 136/27/27 13/26/26 71/28/28
f 136/27/27 71/28/28 70/29/29
f 70/29/29 71/28/28 51/30/30
f 70/29/29 51/30/30 52/31/31
f 52/31/31 51/30/30 124/32/32
f 52/31/31 124/32/32 123/33/33
f 123/33/33 124/32/32 90/34/34
f 123/33/33 90/34/34 89/35/35
f 89/35/35 90/34/34 76/36/36
f 89/35/35 76/36/36 77/37/37
f 77/37/37 76/36/36 99/38/38
f 77/37/37 99/38/38 100/39/39
f 100/39/39 99/38/38 111/40/40
f 100/39/39 111/40/40 112/41/41
f 112/41/41 111/40/40 22/42/42
f 112/41/41 22/42/42 23/43/43
f 49/4/4 2/2/2 48/6/6
f 48/6/6 2/2/2 3/44/44
f 48/6/6 3/44/44 47/8/8
f 47/8/8 3/44/44 4/45/45
f 47/8/8 4/45/45 46/10/10
f 46/10/10 4/45/45 5/46/46
f 46/10/10 5/46/46 6/47/47
f 46/10/10 6/47/47 45/12/12
f 45/12/12 6/47/47 7/48/48
f 45/12/12 7/48/48 44/14/14
f 44/14/14 7/48/48 8/49/49
f 44/14/14 8/49/49 43/16/16
f 43/16/16 8/49/49 9/50/50
f 43/16/16 9/50/50 42/18/18
f 42/18/18 9/50/50 10/51/51
f 42/18/18 10/51/51 41/20/20
f 41/20/20 10/51/51 40/22/22
f 10/51/51 11/52/52 40/22/22
f 40/22/22 11/52/52 39/24/24
f 11/52/52 12/53/53 39/24/24
f 39/24/24 12/53/53 13/26/26
f 14/54/54 38/55/55 13/26/26
f 13/26/26 38/55/55 50/56/56
f 13/26/26 50/56/56 71/28/28
f 71/28/28 50/56/56 51/30/30
f 15/57/57 72/58/58 14/54/54
f 14/54/54 72/58/58 93/59/59
f 14/54/54 93/59/59 38/55/55
f 38/55/55 93/59/59 92/60/60
f 38/55/55 92/60/60 125/61/61
f 125/61/61 92/60/60 91/62/62
f 125/61/61 91/62/62 124/32/32
f 124/32/32 91/62/62 90/34/34
f 72/58/58 15/57/57 94/63/63
f 94/63/63 15/57/57 16/64/64
f 94/63/63 16/64/64 105/65/65
f 105/65/65 16/64/64 17/66/66
f 105/65/65 17/66/66 18/67/67
f 18/67/67 19/68/68 105/65/65
f 105/65/65 19/68/68 106/69/69
f 105/65/65 106/69/69 94/63/63
f 94/63/63 106/69/69 95/70/70
f 94/63/63 95/70/70 72/58/58
f 72/58/58 95/70/70 73/71/71
f 72/58/58 73/71/71 93/59/59
f 93/59/59 73/71/71 92/60/60
f 19/68/68 20/72/72 106/69/69
f 106/69/69 20/72/72 107/73/73
f 106/69/69 107/73/73 95/70/70
f 95/70/70 107/73/73 96/74/74
f 95/70/70 96/74/74 73/71/71
f 73/71/71 96/74/74 74/75/75
f 73/71/71 74/75/75 92/60/60
f 92/60/60 74/75/75 91/62/62
f 107/73/73 20/72/72 108/76/76
f 108/76/76 20/72/72 21/77/77
f 108/76/76 21/77/77 109/78/78
f 109/78/78 21/77/77 110/79/79
f 109/78/78 110/79/79 98/80/80
f 98/80/80 110/79/79 99/38/38
f 98/80/80 99/38/38 76/36/36
f 21/77/77 22/42/42 110/79/79
f 110/79/79 22/42/42 111/40/40
f 110/79/79 111/40/40 99/38/38
f 112/41/41 23/43/43 113/81/81
f 113/81/81 23/43/43 24/82/82
f 113/81/81 24/82/82 114/83/83
f 114/83/83 24/82/82 115/84/84
f 114/83/83 115/84/84 103/85/85
f 103/85/85 115/84/84 104/86/86
f 103/85/85 104/86/86 81/87/87
f 81/87/87 104/86/86 82/88/88
f 81/87/87 82/88/88 84/89/89
f 84/89/89 82/88/88 83/90/90
f 84/89/89 83/90/90 117/91/91
f 117/91/91 83/90/90 116/92/92
f 117/91/91 116/92/92 59/93/93
f 59/93/93 116/92/92 60/94/94
f 59/93/93 60/94/94 62/95/95
f 62/95/95 60/94/94 61/96/96
f 62/95/95 61/96/96 127/97/97
f 127/97/97 61/96/96 126/98/98
f 127/97/97 126/98/98 138/7/7
f 138/7/7 126/98/98 137/5/5
f 24/82/82 25/99/99 115/84/84
f 115/84/84 25/99/99 104/86/86
f 25/99/99 26/100/100 104/86/86
f 104/86/86 26/100/100 27/101/101
f 104/86/86 27/101/101 82/88/88
f 82/88/88 27/101/101 28/102/102
f 82/88/88 28/102/102 29/103/103
f 82/88/88 29/103/103 83/90/90
f 83/90/90 29/103/103 30/104/104
f 83/90/90 30/104/104 31/105/105
f 83/90/90 31/105/105 116/92/92
f 116/92/92 31/105/105 32/106/106
f 116/92/92 32/106/106 60/94/94
f 60/94/94 32/106/106 33/107/107
f 60/94/94 33/107/107 61/96/96
f 61/96/96 33/107/107 34/108/108
f 61/96/96 34/108/108 126/98/98
f 126/98/98 34/108/108 35/109/109
f 126/98/98 35/109/109 137/5/5
f 137/5/5 35/109/109 36/3/3
f 38/55/55 125/61/61 50/56/56
f 50/56/56 125/61/61 51/30/30
f 52/31/31 53/110/110 69/111/111
f 69/111/111 53/110/110 68/112/112
f 69/111/111 68/112/112 134/113/113
f 134/113/113 68/112/112 133/114/114
f 134/113/113 133/114/114 145/21/21
f 145/21/21 133/114/114 144/19/19
f 125/61/61 124/32/32 51/30/30
f 53/110/110 54/115/115 68/112/112
f 68/112/112 54/115/115 67/116/116
f 68/112/112 67/116/116 133/114/114
f 133/114/114 67/116/116 132/117/117
f 133/114/114 132/117/117 144/19/19
f 144/19/19 132/117/117 143/17/17
f 52/31/31 123/33/33 53/110/110
f 53/110/110 123/33/33 122/118/118
f 53/110/110 122/118/118 54/115/115
f 54/115/115 122/118/118 121/119/119
f 54/115/115 121/119/119 55/120/120
f 55/120/120 121/119/119 120/121/121
f 55/120/120 120/121/121 56/122/122
f 56/122/122 120/121/121 119/123/123
f 56/122/122 119/123/123 57/124/124
f 57/124/124 119/123/123 118/125/125
f 57/124/124 118/125/125 58/126/126
f 58/126/126 118/125/125 117/91/91
f 58/126/126 117/91/91 59/93/93
f 54/115/115 55/120/120 67/116/116
f 67/116/116 55/120/120 66/127/127
f 67/116/116 66/127/127 132/117/117
f 132/117/117 66/127/127 131/128/128
f 132/117/117 131/128/128 143/17/17
f 143/17/17 131/128/128 142/15/15
f 55/120/120 56/122/122 66/127/127
f 66/127/127 56/122/122 65/129/129
f 66/127/127 65/129/129 131/128/128
f 131/128/128 65/129/129 130/130/130
f 131/128/128 130/130/130 142/15/15
f 142/15/15 130/130/130 141/13/13
f 56/122/122 57/124/124 65/129/129
f 65/129/129 57/124/124 64/131/131
f 65/129/129 64/131/131 130/130/130
f 130/130/130 64/131/131 129/132/132
f 130/130/130 129/132/132 141/13/13
f 141/13/13 129/132/132 140/11/11
f 57/124/124 58/126/126 64/131/131
f 64/131/131 58/126/126 63/133/133
f 64/131/131 63/133/133 129/132/132
f 129/132/132 63/133/133 128/134/134
f 129/132/132 128/134/134 140/11/11
f 140/11/11 128/134/134 139/9/9
f 58/126/126 59/93/93 63/133/133
f 63/133/133 59/93/93 62/95/95
f 63/133/133 62/95/95 128/134/134
f 128/134/134 62/95/95 127/97/97
f 128/134/134 127/97/97 139/9/9
f 139/9/9 127/97/97 138/7/7
f 52/31/31 69/111/111 70/29/29
f 70/29/29 69/111/111 135/135/135
f 70/29/29 135/135/135 136/27/27
f 136/27/27 135/135/135 37/25/25
f 135/135/135 69/111/111 134/113/113
f 90/34/34 91/62/62 75/136/136
f 75/136/136 91/62/62 74/75/75
f 75/136/136 74/75/75 97/137/137
f 97/137/137 74/75/75 96/74/74
f 97/137/137 96/74/74 108/76/76
f 108/76/76 96/74/74 107/73/73
f 98/80/80 76/36/36 75/136/136
f 75/136/136 76/36/36 90/34/34
f 98/80/80 75/136/136 97/137/137
f 77/37/37 78/138/138 88/139/139
f 88/139/139 78/138/138 87/140/140
f 88/139/139 87/140/140 121/119/119
f 121/119/119 87/140/140 120/121/121
f 78/138/138 79/141/141 87/140/140
f 87/140/140 79/141/141 86/142/142
f 87/140/140 86/142/142 120/121/121
f 120/121/121 86/142/142 119/123/123
f 77/37/37 100/39/39 78/138/138
f 78/138/138 100/39/39 101/143/143
f 78/138/138 101/143/143 79/141/141
f 79/141/141 101/143/143 102/144/144
f 79/141/141 102/144/144 80/145/145
f 80/145/145 102/144/144 103/85/85
f 80/145/145 103/85/85 81/87/87
f 79/141/141 80/145/145 86/142/142
f 86/142/142 80/145/145 85/146/146
f 86/142/142 85/146/146 119/123/123
f 119/123/123 85/146/146 118/125/125
f 80/145/145 81/87/87 85/146/146
f 85/146/146 81/87/87 84/89/89
f 85/146/146 84/89/89 118/125/125
f 118/125/125 84/89/89 117/91/91
f 77/37/37 88/139/139 89/35/35
f 89/35/35 88/139/139 122/118/118
f 89/35/35 122/118/118 123/33/33
f 122/118/118 88/139/139 121/119/119
f 109/78/78 98/80/80 97/137/137
f 109/78/78 97/137/137 108/76/76
f 100/39/39 112/41/41 101/143/143
f 101/143/143 112/41/41 113/81/81
f 101/143/143 113/81/81 102/144/144
f 102/144/144 113/81/81 114/83/83
f 102/144/144 114/83/83 103/85/85
f 145/21/21 146/23/23 134/113/113
f 134/113/113 146/23/23 135/135/135
f 146/23/23 37/25/25 135/135/135
f 147/147/147 186/148/148 12/149/53
f 12/149/53 186/148/148 176/150/149
f 12/149/53 176/150/149 196/151/150
f 196/151/150 176/150/149 198/152/151
f 196/151/150 198/152/151 195/153/152
f 195/153/152 198/152/151 199/154/153
f 195/153/152 199/154/153 194/155/154
f 194/155/154 199/154/153 200/156/155
f 194/155/154 200/156/155 193/157/156
f 193/157/156 200/156/155 201/158/157
f 193/157/156 201/158/157 192/159/158
f 192/159/158 201/158/157 202/160/159
f 192/159/158 202/160/159 191/161/160
f 191/161/160 202/160/159 203/162/161
f 191/161/160 203/162/161 190/163/162
f 190/163/162 203/162/161 204/164/163
f 190/163/162 204/164/163 189/165/164
f 189/165/164 204/164/163 205/166/165
f 189/165/164 205/166/165 188/167/166
f 188/167/166 205/166/165 206/168/167
f 188/167/166 206/168/167 187/169/168
f 187/169/168 206/168/167 158/170/169
f 187/169/168 158/170/169 159/171/170
f 186/148/148 147/147/147 185/172/171
f 185/172/171 147/147/147 148/173/172
f 185/172/171 148/173/172 184/174/173
f 184/174/173 148/173/172 149/175/174
f 184/174/173 149/175/174 150/176/175
f 184/174/173 150/176/175 183/177/176
f 183/177/176 150/176/175 151/178/177
f 183/177/176 151/178/177 182/179/178
f 182/179/178 151/178/177 152/180/179
f 182/179/178 152/180/179 181/181/180
f 181/181/180 152/180/179 153/182/181
f 181/181/180 153/182/181 180/183/182
f 180/183/182 153/182/181 154/184/183
f 180/183/182 154/184/183 179/185/184
f 179/185/184 154/184/183 155/186/185
f 179/185/184 155/186/185 178/187/186
f 178/187/186 155/186/185 156/188/187
f 178/187/186 156/188/187 177/189/188
f 177/189/188 156/188/187 157/190/189
f 177/189/188 157/190/189 158/170/169
f 187/169/168 159/171/170 207/191/190
f 207/191/190 159/171/170 160/192/191
f 207/191/190 160/192/191 235/193/192
f 235/193/192 160/192/191 161/194/193
f 235/193/192 161/194/193 216/195/194
f 216/195/194 161/194/193 162/196/195
f 216/195/194 162/196/195 163/197/196
f 216/195/194 163/197/196 236/198/197
f 236/198/197 163/197/196 164/199/198
f 236/198/197 164/199/198 165/200/199
f 236/198/197 165/200/199 246/201/200
f 246/201/200 165/200/199 166/202/201
f 246/201/200 166/202/201 167/203/202
f 246/201/200 167/203/202 256/204/203
f 256/204/203 167/203/202 168/205/204
f 256/204/203 168/205/204 266/206/205
f 266/206/205 168/205/204 169/207/206
f 266/206/205 169/207/206 276/208/207
f 276/208/207 169/207/206 170/209/208
f 276/208/207 170/209/208 171/210/209
f 172/211/210 278/212/211 171/210/209
f 171/210/209 278/212/211 277/213/212
f 171/210/209 277/213/212 276/208/207
f 276/208/207 277/213/212 266/206/205
f 173/214/213 282/215/214 172/211/210
f 172/211/210 282/215/214 281/216/215
f 172/211/210 281/216/215 280/217/216
f 280/217/216 281/216/215 270/218/217
f 280/217/216 270/218/217 269/219/218
f 269/219/218 270/218/217 259/220/219
f 269/219/218 259/220/219 258/221/220
f 258/221/220 259/220/219 248/222/221
f 258/221/220 248/222/221 247/223/222
f 247/223/222 248/222/221 237/224/223
f 247/223/222 237/224/223 236/198/197
f 236/198/197 237/224/223 216/195/194
f 282/215/214 173/214/213 283/225/224
f 283/225/224 173/214/213 174/226/225
f 283/225/224 174/226/225 284/227/226
f 284/227/226 174/226/225 175/228/227
f 284/227/226 175/228/227 285/229/228
f 285/229/228 175/228/227 18/230/67
f 285/229/228 18/230/67 17/231/66
f 16/232/64 265/233/229 17/231/66
f 17/231/66 265/233/229 275/234/230
f 17/231/66 275/234/230 285/229/228
f 285/229/228 275/234/230 274/235/231
f 285/229/228 274/235/231 284/227/226
f 284/227/226 274/235/231 273/236/232
f 284/227/226 273/236/232 283/225/224
f 283/225/224 273/236/232 272/237/233
f 283/225/224 272/237/233 282/215/214
f 282/215/214 272/237/233 271/238/234
f 282/215/214 271/238/234 281/216/215
f 281/216/215 271/238/234 270/218/217
f 265/233/229 16/232/64 255/239/235
f 255/239/235 16/232/64 15/240/57
f 255/239/235 15/240/57 245/241/236
f 245/241/236 15/240/57 14/242/54
f 245/241/236 14/242/54 225/243/237
f 225/243/237 14/242/54 13/244/26
f 225/243/237 13/244/26 226/245/238
f 226/245/238 13/244/26 197/246/239
f 226/245/238 197/246/239 215/247/240
f 215/247/240 197/246/239 195/153/152
f 215/247/240 195/153/152 194/155/154
f 13/244/26 12/149/53 197/246/239
f 197/246/239 12/149/53 196/151/150
f 197/246/239 196/151/150 195/153/152
f 158/170/169 206/168/167 177/189/188
f 177/189/188 206/168/167 205/166/165
f 177/189/188 205/166/165 178/187/186
f 178/187/186 205/166/165 204/164/163
f 178/187/186 204/164/163 179/185/184
f 179/185/184 204/164/163 203/162/161
f 179/185/184 203/162/161 180/183/182
f 180/183/182 203/162/161 202/160/159
f 180/183/182 202/160/159 181/181/180
f 181/181/180 202/160/159 201/158/157
f 181/181/180 201/158/157 182/179/178
f 182/179/178 201/158/157 200/156/155
f 182/179/178 200/156/155 183/177/176
f 183/177/176 200/156/155 199/154/153
f 183/177/176 199/154/153 184/174/173
f 184/174/173 199/154/153 198/152/151
f 184/174/173 198/152/151 185/172/171
f 185/172/171 198/152/151 176/150/149
f 185/172/171 176/150/149 186/148/148
f 188/167/166 187/169/168 208/248/241
f 208/248/241 187/169/168 207/191/190
f 208/248/241 207/191/190 234/249/242
f 234/249/242 207/191/190 235/193/192
f 234/249/242 235/193/192 217/250/243
f 217/250/243 235/193/192 216/195/194
f 217/250/243 216/195/194 237/224/223
f 189/165/164 188/167/166 209/251/244
f 209/251/244 188/167/166 208/248/241
f 209/251/244 208/248/241 233/252/245
f 233/252/245 208/248/241 234/249/242
f 233/252/245 234/249/242 218/253/246
f 218/253/246 234/249/242 217/250/243
f 218/253/246 217/250/243 238/254/247
f 238/254/247 217/250/243 237/224/223
f 238/254/247 237/224/223 248/222/221
f 190/163/162 189/165/164 210/255/248
f 210/255/248 189/165/164 209/251/244
f 210/255/248 209/251/244 232/256/249
f 232/256/249 209/251/244 233/252/245
f 232/256/249 233/252/245 219/257/250
f 219/257/250 233/252/245 218/253/246
f 219/257/250 218/253/246 239/258/251
f 239/258/251 218/253/246 238/254/247
f 239/258/251 238/254/247 249/259/252
f 249/259/252 238/254/247 248/222/221
f 249/259/252 248/222/221 259/220/219
f 191/161/160 190/163/162 211/260/253
f 211/260/253 190/163/162 210/255/248
f 211/260/253 210/255/248 231/261/254
f 231/261/254 210/255/248 232/256/249
f 231/261/254 232/256/249 220/262/255
f 220/262/255 232/256/249 219/257/250
f 220/262/255 219/257/250 240/263/256
f 240/263/256 219/257/250 239/258/251
f 240/263/256 239/258/251 250/264/257
f 250/264/257 239/258/251 249/259/252
f 250/264/257 249/259/252 260/265/258
f 260/265/258 249/259/252 259/220/219
f 260/265/258 259/220/219 270/218/217
f 192/159/158 191/161/160 212/266/259
f 212/266/259 191/161/160 211/260/253
f 212/266/259 211/260/253 230/267/260
f 230/267/260 211/260/253 231/261/254
f 230/267/260 231/261/254 221/268/261
f 221/268/261 231/261/254 220/262/255
f 221/268/261 220/262/255 241/269/262
f 241/269/262 220/262/255 240/263/256
f 241/269/262 240/263/256 251/270/263
f 251/270/263 240/263/256 250/264/257
f 251/270/263 250/264/257 261/271/264
f 261/271/264 250/264/257 260/265/258
f 261/271/264 260/265/258 271/238/234
f 271/238/234 260/265/258 270/218/217
f 193/157/156 192/159/158 213/272/265
f 213/272/265 192/159/158 212/266/259
f 213/272/265 212/266/259 229/273/266
f 229/273/266 212/266/259 230/267/260
f 229/273/266 230/267/260 222/274/267
f 222/274/267 230/267/260 221/268/261
f 222/274/267 221/268/261 242/275/268
f 242/275/268 221/268/261 241/269/262
f 242/275/268 241/269/262 252/276/269
f 252/276/269 241/269/262 251/270/263
f 252/276/269 251/270/263 262/277/270
f 262/277/270 251/270/263 261/271/264
f 262/277/270 261/271/264 272/237/233
f 272/237/233 261/271/264 271/238/234
f 194/155/154 193/157/156 214/278/271
f 214/278/271 193/157/156 213/272/265
f 214/278/271 213/272/265 228/279/272
f 228/279/272 213/272/265 229/273/266
f 228/279/272 229/273/266 223/280/273
f 223/280/273 229/273/266 222/274/267
f 223/280/273 222/274/267 243/281/274
f 243/281/274 222/274/267 242/275/268
f 243/281/274 242/275/268 253/282/275
f 253/282/275 242/275/268 252/276/269
f 253/282/275 252/276/269 263/283/276
f 263/283/276 252/276/269 262/277/270
f 263/283/276 262/277/270 273/236/232
f 273/236/232 262/277/270 272/237/233
f 194/155/154 214/278/271 215/247/240
f 215/247/240 214/278/271 227/284/277
f 215/247/240 227/284/277 226/245/238
f 226/245/238 227/284/277 225/243/237
f 227/284/277 214/278/271 228/279/272
f 227/284/277 228/279/272 224/285/278
f 224/285/278 228/279/272 223/280/273
f 224/285/278 223/280/273 244/286/279
f 244/286/279 223/280/273 243/281/274
f 244/286/279 243/281/274 254/287/280
f 254/287/280 243/281/274 253/282/275
f 254/287/280 253/282/275 264/288/281
f 264/288/281 253/282/275 263/283/276
f 264/288/281 263/283/276 274/235/231
f 274/235/231 263/283/276 273/236/232
f 245/241/236 225/243/237 224/285/278
f 224/285/278 225/243/237 227/284/277
f 245/241/236 224/285/278 244/286/279
f 255/239/235 245/241/236 244/286/279
f 255/239/235 244/286/279 254/287/280
f 236/198/197 246/201/200 247/223/222
f 247/223/222 246/201/200 257/289/282
f 247/223/222 257/289/282 258/221/220
f 258/221/220 257/289/282 268/290/283
f 258/221/220 268/290/283 269/219/218
f 269/219/218 268/290/283 279/291/284
f 269/219/218 279/291/284 280/217/216
f 280/217/216 279/291/284 172/211/210
f 265/233/229 255/239/235 254/287/280
f 265/233/229 254/287/280 264/288/281
f 246/201/200 256/204/203 257/289/282
f 257/289/282 256/204/203 267/292/285
f 257/289/282 267/292/285 268/290/283
f 268/290/283 267/292/285 278/212/211
f 268/290/283 278/212/211 279/291/284
f 279/291/284 278/212/211 172/211/210
f 267/292/285 256/204/203 266/206/205
f 275/234/230 265/233/229 264/288/281
f 275/234/230 264/288/281 274/235/231
f 278/212/211 267/292/285 277/213/212
f 277/213/212 267/292/285 266/206/205
f 157/293/189 286/294/286 158/295/287
f 158/295/287 286/294/286 314/296/288
f 158/295/287 314/296/288 402/297/289
f 402/297/289 314/296/288 313/298/290
f 402/297/289 313/298/290 403/299/291
f 403/299/291 313/298/290 312/300/292
f 403/299/291 312/300/292 404/301/293
f 404/301/293 312/300/292 311/302/294
f 404/301/293 311/302/294 405/303/295
f 405/303/295 311/302/294 310/304/296
f 405/303/295 310/304/296 406/305/297
f 406/305/297 310/304/296 309/306/298
f 406/305/297 309/306/298 407/307/299
f 407/307/299 309/306/298 308/308/300
f 407/307/299 308/308/300 408/309/301
f 408/309/301 308/308/300 307/310/302
f 408/309/301 307/310/302 409/311/303
f 409/311/303 307/310/302 306/312/304
f 409/311/303 306/312/304 410/313/305
f 410/313/305 306/312/304 305/314/306
f 410/313/305 305/314/306 411/315/307
f 411/315/307 305/314/306 304/316/308
f 411/315/307 304/316/308 302/317/309
f 302/317/309 304/316/308 297/318/310
f 302/317/309 297/318/310 401/319/311
f 401/319/311 297/318/310 336/320/312
f 401/319/311 336/320/312 335/321/313
f 335/321/313 336/320/312 316/322/314
f 335/321/313 316/322/314 317/323/315
f 317/323/315 316/322/314 389/324/316
f 317/323/315 389/324/316 388/325/317
f 388/325/317 389/324/316 355/326/318
f 388/325/317 355/326/318 354/327/319
f 354/327/319 355/326/318 341/328/320
f 354/327/319 341/328/320 342/329/321
f 342/329/321 341/328/320 364/330/322
f 342/329/321 364/330/322 365/331/323
f 365/331/323 364/330/322 376/332/324
f 365/331/323 376/332/324 377/333/325
f 377/333/325 376/332/324 172/334/326
f 377/333/325 172/334/326 171/335/327
f 314/296/288 286/294/286 313/298/290
f 313/298/290 286/294/286 287/336/328
f 313/298/290 287/336/328 312/300/292
f 312/300/292 287/336/328 288/337/329
f 312/300/292 288/337/329 311/302/294
f 311/302/294 288/337/329 289/338/330
f 311/302/294 289/338/330 290/339/331
f 311/302/294 290/339/331 310/304/296
f 310/304/296 290/339/331 291/340/332
f 310/304/296 291/340/332 309/306/298
f 309/306/298 291/340/332 292/341/333
f 309/306/298 292/341/333 308/308/300
f 308/308/300 292/341/333 293/342/334
f 308/308/300 293/342/334 307/310/302
f 307/310/302 293/342/334 294/343/335
f 307/310/302 294/343/335 306/312/304
f 306/312/304 294/343/335 305/314/306
f 294/343/335 295/344/336 305/314/306
f 305/314/306 295/344/336 304/316/308
f 295/344/336 296/345/337 304/316/308
f 304/316/308 296/345/337 297/318/310
f 298/346/338 303/347/339 297/318/310
f 297/318/310 303/347/339 315/348/340
f 297/318/310 315/348/340 336/320/312
f 336/320/312 315/348/340 316/322/314
f 299/349/341 337/350/342 298/346/338
f 298/346/338 337/350/342 358/351/343
f 298/346/338 358/351/343 303/347/339
f 303/347/339 358/351/343 357/352/344
f 303/347/339 357/352/344 390/353/345
f 390/353/345 357/352/344 356/354/346
f 390/353/345 356/354/346 389/324/316
f 389/324/316 356/354/346 355/326/318
f 337/350/342 299/349/341 359/355/347
f 359/355/347 299/349/341 300/356/348
f 359/355/347 300/356/348 370/357/349
f 370/357/349 300/356/348 301/358/350
f 370/357/349 301/358/350 18/359/351
f 18/359/351 175/360/352 370/357/349
f 370/357/349 175/360/352 371/361/353
f 370/357/349 371/361/353 359/355/347
f 359/355/347 371/361/353 360/362/354
f 359/355/347 360/362/354 337/350/342
f 337/350/342 360/362/354 338/363/355
f 337/350/342 338/363/355 358/351/343
f 358/351/343 338/363/355 357/352/344
f 175/360/352 174/364/356 371/361/353
f 371/361/353 174/364/356 372/365/357
f 371/361/353 372/365/357 360/362/354
f 360/362/354 372/365/357 361/366/358
f 360/362/354 361/366/358 338/363/355
f 338/363/355 361/366/358 339/367/359
f 338/363/355 339/367/359 357/352/344
f 357/352/344 339/367/359 356/354/346
f 372/365/357 174/364/356 373/368/360
f 373/368/360 174/364/356 173/369/361
f 373/368/360 173/369/361 374/370/362
f 374/370/362 173/369/361 375/371/363
f 374/370/362 375/371/363 363/372/364
f 363/372/364 375/371/363 364/330/322
f 363/372/364 364/330/322 341/328/320
f 173/369/361 172/334/326 375/371/363
f 375/371/363 172/334/326 376/332/324
f 375/371/363 376/332/324 364/330/322
f 377/333/325 171/335/327 378/373/365
f 378/373/365 171/335/327 170/374/366
f 378/373/365 170/374/366 379/375/367
f 379/375/367 170/374/366 380/376/368
f 379/375/367 380/376/368 368/377/369
f 368/377/369 380/376/368 369/378/370
f 368/377/369 369/378/370 346/379/371
f 346/379/371 369/378/370 347/380/372
f 346/379/371 347/380/372 349/381/373
f 349/381/373 347/380/372 348/382/374
f 349/381/373 348/382/374 382/383/375
f 382/383/375 348/382/374 381/384/376
f 382/383/375 381/384/376 324/385/377
f 324/385/377 381/384/376 325/386/378
f 324/385/377 325/386/378 327/387/379
f 327/387/379 325/386/378 326/388/380
f 327/387/379 326/388/380 392/389/381
f 392/389/381 326/388/380 391/390/382
f 392/389/381 391/390/382 403/299/291
f 403/299/291 391/390/382 402/297/289
f 170/374/366 169/391/383 380/376/368
f 380/376/368 169/391/383 369/378/370
f 169/391/383 168/392/384 369/378/370
f 369/378/370 168/392/384 167/393/385
f 369/378/370 167/393/385 347/380/372
f 347/380/372 167/393/385 166/394/386
f 347/380/372 166/394/386 165/395/387
f 347/380/372 165/395/387 348/382/374
f 348/382/374 165/395/387 164/396/388
f 348/382/374 164/396/388 163/397/389
f 348/382/374 163/397/389 381/384/376
f 381/384/376 163/397/389 162/398/390
f 381/384/376 162/398/390 325/386/378
f 325/386/378 162/398/390 161/399/391
f 325/386/378 161/399/391 326/388/380
f 326/388/380 161/399/391 160/400/392
f 326/388/380 160/400/392 391/390/382
f 391/390/382 160/400/392 159/401/393
f 391/390/382 159/401/393 402/297/289
f 402/297/289 159/401/393 158/295/287
f 303/347/339 390/353/345 315/348/340
f 315/348/340 390/353/345 316/322/314
f 317/323/315 318/402/394 334/403/395
f 334/403/395 318/402/394 333/404/396
f 334/403/395 333/404/396 399/405/397
f 399/405/397 333/404/396 398/406/398
f 399/405/397 398/406/398 410/313/305
f 410/313/305 398/406/398 409/311/303
f 390/353/345 389/324/316 316/322/314
f 318/402/394 319/407/399 333/404/396
f 333/404/396 319/407/399 332/408/400
f 333/404/396 332/408/400 398/406/398
f 398/406/398 332/408/400 397/409/401
f 398/406/398 397/409/401 409/311/303
f 409/311/303 397/409/401 408/309/301
f 317/323/315 388/325/317 318/402/394
f 318/402/394 388/325/317 387/410/402
f 318/402/394 387/410/402 319/407/399
f 319/407/399 387/410/402 386/411/403
f 319/407/399 386/411/403 320/412/404
f 320/412/404 386/411/403 385/413/405
f 320/412/404 385/413/405 321/414/406
f 321/414/406 385/413/405 384/415/407
f 321/414/406 384/415/407 322/416/408
f 322/416/408 384/415/407 383/417/409
f 322/416/408 383/417/409 323/418/410
f 323/418/410 383/417/409 382/383/375
f 323/418/410 382/383/375 324/385/377
f 319/407/399 320/412/404 332/408/400
f 332/408/400 320/412/404 331/419/411
f 332/408/400 331/419/411 397/409/401
f 397/409/401 331/419/411 396/420/412
f 397/409/401 396/420/412 408/309/301
f 408/309/301 396/420/412 407/307/299
f 320/412/404 321/414/406 331/419/411
f 331/419/411 321/414/406 330/421/413
f 331/419/411 330/421/413 396/420/412
f 396/420/412 330/421/413 395/422/414
f 396/420/412 395/422/414 407/307/299
f 407/307/299 395/422/414 406/305/297
f 321/414/406 322/416/408 330/421/413
f 330/421/413 322/416/408 329/423/415
f 330/421/413 329/423/415 395/422/414
f 395/422/414 329/423/415 394/424/416
f 395/422/414 394/424/416 406/305/297
f 406/305/297 394/424/416 405/303/295
f 322/416/408 323/418/410 329/423/415
f 329/423/415 323/418/410 328/425/417
f 329/423/415 328/425/417 394/424/416
f 394/424/416 328/425/417 393/426/418
f 394/424/416 393/426/418 405/303/295
f 405/303/295 393/426/418 404/301/293
f 323/418/410 324/385/377 328/425/417
f 328/425/417 324/385/377 327/387/379
f 328/425/417 327/387/379 393/426/418
f 393/426/418 327/387/379 392/389/381
f 393/426/418 392/389/381 404/301/293
f 404/301/293 392/389/381 403/299/291
f 317/323/315 334/403/395 335/321/313
f 335/321/313 334/403/395 400/427/419
f 335/321/313 400/427/419 401/319/311
f 401/319/311 400/427/419 302/317/309
f 400/427/419 334/403/395 399/405/397
f 355/326/318 356/354/346 340/428/420
f 340/428/420 356/354/346 339/367/359
f 340/428/420 339/367/359 362/429/421
f 362/429/421 339/367/359 361/366/358
f 362/429/421 361/366/358 373/368/360
f 373/368/360 361/366/358 372/365/357
f 363/372/364 341/328/320 340/428/420
f 340/428/420 341/328/320 355/326/318
f 363/372/364 340/428/420 362/429/421
f 342/329/321 343/430/422 353/431/423
f 353/431/423 343/430/422 352/432/424
f 353/431/423 352/432/424 386/411/403
f 386/411/403 352/432/424 385/413/405
f 343/430/422 344/433/425 352/432/424
f 352/432/424 344/433/425 351/434/426
f 352/432/424 351/434/426 385/413/405
f 385/413/405 351/434/426 384/415/407
f 342/329/321 365/331/323 343/430/422
f 343/430/422 365/331/323 366/435/427
f 343/430/422 366/435/427 344/433/425
f 344/433/425 366/435/427 367/436/428
f 344/433/425 367/436/428 345/437/429
f 345/437/429 367/436/428 368/377/369
f 345/437/429 368/377/369 346/379/371
f 344/433/425 345/437/429 351/434/426
f 351/434/426 345/437/429 350/438/430
f 351/434/426 350/438/430 384/415/407
f 384/415/407 350/438/430 383/417/409
f 345/437/429 346/379/371 350/438/430
f 350/438/430 346/379/371 349/381/373
f 350/438/430 349/381/373 383/417/409
f 383/417/409 349/381/373 382/383/375
f 342/329/321 353/431/423 354/327/319
f 354/327/319 353/431/423 387/410/402
f 354/327/319 387/410/402 388/325/317
f 387/410/402 353/431/423 386/411/403
f 374/370/362 363/372/364 362/429/421
f 374/370/362 362/429/421 373/368/360
f 365/331/323 377/333/325 366/435/427
f 366/435/427 377/333/325 378/373/365
f 366/435/427 378/373/365 367/436/428
f 367/436/428 378/373/365 379/375/367
f 367/436/428 379/375/367 368/377/369
f 410/313/305 411/315/307 399/405/397
f 399/405/397 411/315/307 400/427/419
f 411/315/307 302/317/309 400/427/419
f 412/439/431 432/440/432 296/441/337
f 296/441/337 432/440/432 422/442/433
f 296/441/337 422/442/433 442/443/434
f 442/443/434 422/442/433 444/444/435
f 442/443/434 444/444/435 441/445/436
f 441/445/436 444/444/435 445/446/437
f 441/445/436 445/446/437 440/447/438
f 440/447/438 445/446/437 446/448/439
f 440/447/438 446/448/439 439/449/440
f 439/449/440 446/448/439 447/450/441
f 439/449/440 447/450/441 438/451/442
f 438/451/442 447/450/441 448/452/443
f 438/451/442 448/452/443 437/453/444
f 437/453/444 448/452/443 449/454/445
f 437/453/444 449/454/445 436/455/446
f 436/455/446 449/454/445 450/456/447
f 436/455/446 450/456/447 435/457/448
f 435/457/448 450/456/447 451/458/449
f 435/457/448 451/458/449 434/459/450
f 434/459/450 451/458/449 452/460/451
f 434/459/450 452/460/451 433/461/452
f 433/461/452 452/460/451 36/462/453
f 433/461/452 36/462/453 35/463/454
f 432/440/432 412/439/431 431/464/455
f 431/464/455 412/439/431 413/465/456
f 431/464/455 413/465/456 430/466/457
f 430/466/457 413/465/456 414/467/458
f 430/466/457 414/467/458 415/468/459
f 430/466/457 415/468/459 429/469/460
f 429/469/460 415/468/459 416/470/461
f 429/469/460 416/470/461 428/471/462
f 428/471/462 416/470/461 417/472/463
f 428/471/462 417/472/463 427/473/464
f 427/473/464 417/472/463 418/474/465
f 427/473/464 418/474/465 426/475/466
f 426/475/466 418/474/465 419/476/467
f 426/475/466 419/476/467 425/477/468
f 425/477/468 419/476/467 420/478/469
f 425/477/468 420/478/469 424/479/470
f 424/479/470 420/478/469 421/480/471
f 424/479/470 421/480/471 423/481/472
f 423/481/472 421/480/471 1/482/1
f 423/481/472 1/482/1 36/462/453
f 433/461/452 35/463/454 453/483/473
f 453/483/473 35/463/454 34/484/474
f 453/483/473 34/484/474 481/485/475
f 481/485/475 34/484/474 33/486/476
f 481/485/475 33/486/476 462/487/477
f 462/487/477 33/486/476 32/488/478
f 462/487/477 32/488/478 31/489/479
f 462/487/477 31/489/479 482/490/480
f 482/490/480 31/489/479 30/491/481
f 482/490/480 30/491/481 29/492/482
f 482/490/480 29/492/482 492/493/483
f 492/493/483 29/492/482 28/494/484
f 492/493/483 28/494/484 27/495/485
f 492/493/483 27/495/485 502/496/486
f 502/496/486 27/495/485 26/497/487
f 502/496/486 26/497/487 512/498/488
f 512/498/488 26/497/487 25/499/489
f 512/498/488 25/499/489 522/500/490
f 522/500/490 25/499/489 24/501/491
f 522/500/490 24/501/491 23/502/492
f 22/503/493 524/504/494 23/502/492
f 23/502/492 524/504/494 523/505/495
f 23/502/492 523/505/495 522/500/490
f 522/500/490 523/505/495 512/498/488
f 21/506/496 528/507/497 22/503/493
f 22/503/493 528/507/497 527/508/498
f 22/503/493 527/508/498 526/509/499
f 526/509/499 527/508/498 516/510/500
f 526/509/499 516/510/500 515/511/501
f 515/511/501 516/510/500 505/512/502
f 515/511/501 505/512/502 504/513/503
f 504/513/503 505/512/502 494/514/504
f 504/513/503 494/514/504 493/515/505
f 493/515/505 494/514/504 483/516/506
f 493/515/505 483/516/506 482/490/480
f 482/490/480 483/516/506 462/487/477
f 528/507/497 21/506/496 529/517/507
f 529/517/507 21/506/496 20/518/508
f 529/517/507 20/518/508 530/519/509
f 530/519/509 20/518/508 19/520/510
f 530/519/509 19/520/510 531/521/511
f 531/521/511 19/520/510 18/522/351
f 531/521/511 18/522/351 301/523/350
f 300/524/348 511/525/512 301/523/350
f 301/523/350 511/525/512 521/526/513
f 301/523/350 521/526/513 531/521/511
f 531/521/511 521/526/513 520/527/514
f 531/521/511 520/527/514 530/519/509
f 530/519/509 520/527/514 519/528/515
f 530/519/509 519/528/515 529/517/507
f 529/517/507 519/528/515 518/529/516
f 529/517/507 518/529/516 528/507/497
f 528/507/497 518/529/516 517/530/517
f 528/507/497 517/530/517 527/508/498
f 527/508/498 517/530/517 516/510/500
f 511/525/512 300/524/348 501/531/518
f 501/531/518 300/524/348 299/532/341
f 501/531/518 299/532/341 491/533/519
f 491/533/519 299/532/341 298/534/338
f 491/533/519 298/534/338 471/535/520
f 471/535/520 298/534/338 297/536/310
f 471/535/520 297/536/310 472/537/521
f 472/537/521 297/536/310 443/538/522
f 472/537/521 443/538/522 461/539/523
f 461/539/523 443/538/522 441/445/436
f 461/539/523 441/445/436 440/447/438
f 297/536/310 296/441/337 443/538/522
f 443/538/522 296/441/337 442/443/434
f 443/538/522 442/443/434 441/445/436
f 36/462/453 452/460/451 423/481/472
f 423/481/472 452/460/451 451/458/449
f 423/481/472 451/458/449 424/479/470
f 424/479/470 451/458/449 450/456/447
f 424/479/470 450/456/447 425/477/468
f 425/477/468 450/456/447 449/454/445
f 425/477/468 449/454/445 426/475/466
f 426/475/466 449/454/445 448/452/443
f 426/475/466 448/452/443 427/473/464
f 427/473/464 448/452/443 447/450/441
f 427/473/464 447/450/441 428/471/462
f 428/471/462 447/450/441 446/448/439
f 428/471/462 446/448/439 429/469/460
f 429/469/460 446/448/439 445/446/437
f 429/469/460 445/446/437 430/466/457
f 430/466/457 445/446/437 444/444/435
f 430/466/457 444/444/435 431/464/455
f 431/464/455 444/444/435 422/442/433
f 431/464/455 422/442/433 432/440/432
f 434/459/450 433/461/452 454/540/524
f 454/540/524 433/461/452 453/483/473
f 454/540/524 453/483/473 480/541/525
f 480/541/525 453/483/473 481/485/475
f 480/541/525 481/485/475 463/542/526
f 463/542/526 481/485/475 462/487/477
f 463/542/526 462/487/477 483/516/506
f 435/457/448 434/459/450 455/543/527
f 455/543/527 434/459/450 454/540/524
f 455/543/527 454/540/524 479/544/528
f 479/544/528 454/540/524 480/541/525
f 479/544/528 480/541/525 464/545/529
f 464/545/529 480/541/525 463/542/526
f 464/545/529 463/542/526 484/546/530
f 484/546/530 463/542/526 483/516/506
f 484/546/530 483/516/506 494/514/504
f 436/455/446 435/457/448 456/547/531
f 456/547/531 435/457/448 455/543/527
f 456/547/531 455/543/527 478/548/532
f 478/548/532 455/543/527 479/544/528
f 478/548/532 479/544/528 465/549/533
f 465/549/533 479/544/528 464/545/529
f 465/549/533 464/545/529 485/550/534
f 485/550/534 464/545/529 484/546/530
f 485/550/534 484/546/530 495/551/535
f 495/551/535 484/546/530 494/514/504
f 495/551/535 494/514/504 505/512/502
f 437/453/444 436/455/446 457/552/536
f 457/552/536 436/455/446 456/547/531
f 457/552/536 456/547/531 477/553/537
f 477/553/537 456/547/531 478/548/532
f 477/553/537 478/548/532 466/554/538
f 466/554/538 478/548/532 465/549/533
f 466/554/538 465/549/533 486/555/539
f 486/555/539 465/549/533 485/550/534
f 486/555/539 485/550/534 496/556/540
f 496/556/540 485/550/534 495/551/535
f 496/556/540 495/551/535 506/557/541
f 506/557/541 495/551/535 505/512/502
f 506/557/541 505/512/502 516/510/500
f 438/451/442 437/453/444 458/558/542
f 458/558/542 437/453/444 457/552/536
f 458/558/542 457/552/536 476/559/543
f 476/559/543 457/552/536 477/553/537
f 476/559/543 477/553/537 467/560/544
f 467/560/544 477/553/537 466/554/538
f 467/560/544 466/554/538 487/561/545
f 487/561/545 466/554/538 486/555/539
f 487/561/545 486/555/539 497/562/546
f 497/562/546 486/555/539 496/556/540
f 497/562/546 496/556/540 507/563/547
f 507/563/547 496/556/540 506/557/541
f 507/563/547 506/557/541 517/530/517
f 517/530/517 506/557/541 516/510/500
f 439/449/440 438/451/442 459/564/548
f 459/564/548 438/451/442 458/558/542
f 459/564/548 458/558/542 475/565/549
f 475/565/549 458/558/542 476/559/543
f 475/565/549 476/559/543 468/566/550
f 468/566/550 476/559/543 467/560/544
f 468/566/550 467/560/544 488/567/551
f 488/567/551 467/560/544 487/561/545
f 488/567/551 487/561/545 498/568/552
f 498/568/552 487/561/545 497/562/546
f 498/568/552 497/562/546 508/569/553
f 508/569/553 497/562/546 507/563/547
f 508/569/553 507/563/547 518/529/516
f 518/529/516 507/563/547 517/530/517
f 440/447/438 439/449/440 460/570/554
f 460/570/554 439/449/440 459/564/548
f 460/570/554 459/564/548 474/571/555
f 474/571/555 459/564/548 475/565/549
f 474/571/555 475/565/549 469/572/556
f 469/572/556 475/565/549 468/566/550
f 469/572/556 468/566/550 489/573/557
f 489/573/557 468/566/550 488/567/551
f 489/573/557 488/567/551 499/574/558
f 499/574/558 488/567/551 498/568/552
f 499/574/558 498/568/552 509/575/559
f 509/575/559 498/568/552 508/569/553
f 509/575/559 508/569/553 519/528/515
f 519/528/515 508/569/553 518/529/516
f 440/447/438 460/570/554 461/539/523
f 461/539/523 460/570/554 473/576/560
f 461/539/523 473/576/560 472/537/521
f 472/537/521 473/576/560 471/535/520
f 473/576/560 460/570/554 474/571/555
f 473/576/560 474/571/555 470/577/561
f 470/577/561 474/571/555 469/572/556
f 470/577/561 469/572/556 490/578/562
f 490/578/562 469/572/556 489/573/557
f 490/578/562 489/573/557 500/579/563
f 500/579/563 489/573/557 499/574/558
f 500/579/563 499/574/558 510/580/564
f 510/580/564 499/574/558 509/575/559
f 510/580/564 509/575/559 520/527/514
f 520/527/514 509/575/559 519/528/515
f 491/533/519 471/535/520 470/577/561
f 470/577/561 471/535/520 473/576/560
f 491/533/519 470/577/561 490/578/562
f 501/531/518 491/533/519 490/578/562
f 501/531/518 490/578/562 500/579/563
f 482/490/480 492/493/483 493/515/505
f 493/515/505 492/493/483 503/581/565
f 493/515/505 503/581/565 504/513/503
f 504/513/503 503/581/565 514/582/566
f 504/513/503 514/582/566 515/511/501
f 515/511/501 514/582/566 525/583/567
f 515/511/501 525/583/567 526/509/499
f 526/509/499 525/583/567 22/503/493
f 511/525/512 501/531/518 500/579/563
f 511/525/512 500/579/563 510/580/564
f 492/493/483 502/496/486 503/581/565
f 503/581/565 502/496/486 513/584/568
f 503/581/565 513/584/568 514/582/566
f 514/582/566 513/584/568 524/504/494
f 514/582/566 524/504/494 525/583/567
f 525/583/567 524/504/494 22/503/493
f 513/584/568 502/496/486 512/498/488
f 521/526/513 511/525/512 510/580/564
f 521/526/513 510/580/564 520/527/514
f 524/504/494 513/584/568 523/505/495
f 523/505/495 513/584/568 512/498/488
f 532/585/569 533/586/570 539/587/571
f 539/587/571 533/586/570 538/588/572
f 538/588/572 533/586/570 534/589/573
f 538/588/572 534/589/573 537/590/574
f 537/590/574 534/589/573 536/591/575
f 536/591/575 534/589/573 535/592/576
# 539 vertices
# 592 texture params
# 576 normals
# 1022 facets

# 1 groups
